<svg width="20" height="20" viewBox="0 0 20 20" fill="none" xmlns="http://www.w3.org/2000/svg">
<path d="M4.32251 6.89453L5.1009 16.2911C5.15668 16.9687 5.73389 17.5 6.4141 17.5H13.5861C14.2663 17.5 14.8435 16.9687 14.8993 16.2911L15.6777 6.89453H4.32251ZM7.80242 15.7422C7.57238 15.7422 7.37885 15.5632 7.36426 15.3302L6.9248 8.24034C6.90978 7.99788 7.09388 7.78932 7.33593 7.77429C7.58697 7.75668 7.78654 7.94295 7.80198 8.18541L8.24144 15.2753C8.25699 15.5263 8.05833 15.7422 7.80242 15.7422ZM10.4396 15.3027C10.4396 15.5456 10.243 15.7422 10.0001 15.7422C9.7572 15.7422 9.56064 15.5456 9.56064 15.3027V8.21289C9.56064 7.96999 9.7572 7.77344 10.0001 7.77344C10.243 7.77344 10.4396 7.96999 10.4396 8.21289V15.3027ZM13.0754 8.24037L12.6359 15.3302C12.6215 15.5609 12.4292 15.7531 12.1699 15.7413C11.9278 15.7263 11.7437 15.5177 11.7588 15.2753L12.1982 8.18544C12.2132 7.94298 12.4257 7.76658 12.6643 7.77432C12.9063 7.78935 13.0904 7.99791 13.0754 8.24037Z" fill="#2EA18E"/>
<path d="M15.7129 4.25781H13.0762V3.81836C13.0762 3.09139 12.4848 2.5 11.7578 2.5H8.24219C7.51521 2.5 6.92383 3.09139 6.92383 3.81836V4.25781H4.28711C3.80169 4.25781 3.4082 4.6513 3.4082 5.13672C3.4082 5.62208 3.80169 6.01562 4.28711 6.01562C8.32908 6.01562 11.6711 6.01562 15.7129 6.01562C16.1983 6.01562 16.5918 5.62208 16.5918 5.13672C16.5918 4.6513 16.1983 4.25781 15.7129 4.25781ZM12.1973 4.25781H7.80273V3.81836C7.80273 3.5759 7.99973 3.37891 8.24219 3.37891H11.7578C12.0003 3.37891 12.1973 3.5759 12.1973 3.81836V4.25781Z" fill="#2EA18E"/>
</svg>
