<svg width="20" height="22" viewBox="0 0 20 22" fill="none" xmlns="http://www.w3.org/2000/svg">
<path d="M14.1448 9.45312C14.1448 8.97849 13.76 8.59375 13.2854 8.59375H4.43384C3.95921 8.59375 3.57446 8.97849 3.57446 9.45312C3.57446 9.92776 3.95921 10.3125 4.43384 10.3125H13.2854C13.76 10.3125 14.1448 9.92776 14.1448 9.45312Z" fill="white"/>
<path d="M4.43384 12.0312C3.95921 12.0312 3.57446 12.416 3.57446 12.8906C3.57446 13.3653 3.95921 13.75 4.43384 13.75H9.8097C10.2843 13.75 10.6691 13.3653 10.6691 12.8906C10.6691 12.416 10.2843 12.0312 9.8097 12.0312H4.43384Z" fill="white"/>
<path d="M6.45336 20.2812H3.57922C2.6315 20.2812 1.86047 19.5102 1.86047 18.5625V3.4375C1.86047 2.48978 2.6315 1.71875 3.57922 1.71875H14.1448C15.0925 1.71875 15.8635 2.48978 15.8635 3.4375V8.72266C15.8635 9.19729 16.2483 9.58203 16.7229 9.58203C17.1975 9.58203 17.5823 9.19729 17.5823 8.72266V3.4375C17.5823 1.54206 16.0402 0 14.1448 0H3.57922C1.68379 0 0.141724 1.54206 0.141724 3.4375V18.5625C0.141724 20.4579 1.68379 22 3.57922 22H6.45336C6.92799 22 7.31274 21.6153 7.31274 21.1406C7.31274 20.666 6.92799 20.2812 6.45336 20.2812Z" fill="white"/>
<path d="M19.1044 12.4425C18.0992 11.4373 16.4636 11.4373 15.4591 12.4419L10.741 17.1495C10.6408 17.2495 10.5669 17.3727 10.5257 17.5081L9.49818 20.8908C9.40709 21.1907 9.48645 21.5164 9.70534 21.7407C9.8693 21.9088 10.0921 22 10.3205 22C10.397 22 10.4741 21.9898 10.5499 21.9688L14.0185 21.0079C14.1613 20.9684 14.2914 20.8927 14.3962 20.788L19.1044 16.0886C20.1097 15.0834 20.1097 13.4478 19.1044 12.4425ZM13.342 19.4119L11.5969 19.8953L12.1076 18.214L15.2911 15.0375L16.5067 16.2531L13.342 19.4119ZM17.8897 14.8728L17.7232 15.0389L16.5078 13.8236L16.6738 13.658C17.0089 13.3229 17.5541 13.3229 17.8891 13.658C18.2242 13.993 18.2242 14.5382 17.8897 14.8728Z" fill="white"/>
<path d="M13.2854 5.15625H4.43384C3.95921 5.15625 3.57446 5.54099 3.57446 6.01562C3.57446 6.49026 3.95921 6.875 4.43384 6.875H13.2854C13.76 6.875 14.1448 6.49026 14.1448 6.01562C14.1448 5.54099 13.76 5.15625 13.2854 5.15625Z" fill="white"/>
</svg>
