<svg width="44" height="44" viewBox="0 0 44 44" fill="none" xmlns="http://www.w3.org/2000/svg">
<path d="M11 0C9.4875 0 8.25 1.2375 8.25 2.75V41.25C8.25 42.7625 9.4875 44 11 44H38.5C40.0125 44 41.25 42.7625 41.25 41.25V11L30.25 0H11Z" fill="#E2E5E7"/>
<path d="M33 11H41.25L30.25 0V8.25C30.25 9.7625 31.4875 11 33 11Z" fill="#B0B7BD"/>
<path d="M41.25 19.25L33 11H41.25V19.25Z" fill="#CAD1D8"/>
<path d="M35.75 35.75C35.75 36.5063 35.1312 37.125 34.375 37.125H4.125C3.36875 37.125 2.75 36.5063 2.75 35.75V22C2.75 21.2437 3.36875 20.625 4.125 20.625H34.375C35.1312 20.625 35.75 21.2437 35.75 22V35.75Z" fill="#50BEE8"/>
<path d="M7.95578 33C7.59278 33 7.19678 32.8006 7.19678 32.318V26.0741C7.19678 25.6781 7.59278 25.3921 7.95578 25.3921H10.4734C15.4977 25.3921 15.3863 33 10.571 33H7.95578ZM8.64878 26.7327V31.658H10.4734C13.442 31.658 13.5727 26.7327 10.4734 26.7327H8.64878Z" fill="white"/>
<path d="M19.5937 33.1101C17.5601 33.1981 15.4481 31.8451 15.4481 29.1514C15.4481 26.4468 17.5587 25.1172 19.5937 25.1172C21.5174 25.2148 23.529 26.5458 23.529 29.1514C23.529 31.7584 21.5174 33.1101 19.5937 33.1101ZM19.4727 26.5472C18.2407 26.5472 16.9001 27.4162 16.9001 29.1528C16.9001 30.8798 18.2421 31.7598 19.4727 31.7598C20.7377 31.7598 22.0894 30.8798 22.0894 29.1528C22.0894 27.4148 20.7377 26.5472 19.4727 26.5472Z" fill="white"/>
<path d="M24.8229 29.1403C24.8229 27.0187 26.1539 25.1941 28.6825 25.1941C29.6395 25.1941 30.3985 25.4801 31.2001 26.1731C31.4971 26.4467 31.5301 26.9307 31.2331 27.2387C30.9361 27.5013 30.4851 27.4697 30.2211 27.2057C29.7715 26.7327 29.3095 26.6021 28.6825 26.6021C26.9899 26.6021 26.1773 27.8011 26.1773 29.1417C26.1773 30.5057 26.9789 31.7583 28.6825 31.7583C29.3095 31.7583 29.8925 31.504 30.3985 31.0543C30.7381 30.7903 31.2111 30.921 31.4091 31.1863C31.5851 31.4283 31.6718 31.8353 31.2881 32.219C30.5181 32.9353 29.5955 33.0783 28.6811 33.0783C26.0219 33.0783 24.8229 31.262 24.8229 29.1403Z" fill="white"/>
<path d="M34.375 37.125H8.25V38.5H34.375C35.1313 38.5 35.75 37.8812 35.75 37.125V35.75C35.75 36.5063 35.1313 37.125 34.375 37.125Z" fill="#CAD1D8"/>
</svg>
