<svg width="21" height="20" viewBox="0 0 21 20" fill="none" xmlns="http://www.w3.org/2000/svg">
<path fill-rule="evenodd" clip-rule="evenodd" d="M4.20942 13.2C4.65125 13.2 5.00942 13.5581 5.00942 14V15.6C5.00942 15.8121 5.0937 16.0156 5.24375 16.1656H5.24376C5.39378 16.3156 5.59724 16.4 5.80942 16.4H15.4094C15.6216 16.4 15.825 16.3157 15.9751 16.1656C16.1252 16.0156 16.2094 15.8121 16.2094 15.6V14C16.2094 13.5581 16.5676 13.2 17.0094 13.2C17.4512 13.2 17.8094 13.5581 17.8094 14V15.6C17.8094 16.2364 17.5566 16.8469 17.1064 17.297C16.6564 17.7471 16.0459 18 15.4094 18H5.80942C5.17292 18 4.56245 17.7472 4.11235 17.297C3.66229 16.8469 3.40942 16.2364 3.40942 15.6V14C3.40942 13.5581 3.76759 13.2 4.20942 13.2Z" fill="#2EA18E"/>
<path fill-rule="evenodd" clip-rule="evenodd" d="M6.04364 8.63446C6.35606 8.32204 6.86259 8.32204 7.17501 8.63446L10.6093 12.0688L14.0436 8.63446C14.356 8.32204 14.8626 8.32204 15.175 8.63446C15.4875 8.94686 15.4875 9.45342 15.175 9.76582L11.175 13.7658C10.8626 14.0782 10.356 14.0782 10.0436 13.7658L6.04364 9.76582C5.73122 9.45342 5.73122 8.94686 6.04364 8.63446Z" fill="#2EA18E"/>
<path fill-rule="evenodd" clip-rule="evenodd" d="M10.6093 2.80005C11.0512 2.80005 11.4093 3.15822 11.4093 3.60005V13.2C11.4093 13.6419 11.0512 14 10.6093 14C10.1675 14 9.80933 13.6419 9.80933 13.2V3.60005C9.80933 3.15822 10.1675 2.80005 10.6093 2.80005Z" fill="#2EA18E"/>
</svg>
