<svg width="20" height="20" viewBox="0 0 20 20" fill="none" xmlns="http://www.w3.org/2000/svg">
<path d="M15.3499 10.2C14.9905 10.2 14.7 10.4913 14.7 10.85V16.05C14.7 16.4081 14.4087 16.7 14.05 16.7H4.94999C4.59115 16.7 4.30004 16.4081 4.30004 16.05V6.94999C4.30004 6.59187 4.59115 6.30004 4.94999 6.30004H10.15C10.5095 6.30004 10.8 6.0088 10.8 5.65008C10.8 5.29124 10.5095 5 10.15 5H4.94999C3.8749 5 3 5.8749 3 6.94999V16.05C3 17.1251 3.8749 18 4.94999 18H14.05C15.1251 18 16 17.1251 16 16.05V10.85C16 10.4905 15.7094 10.2 15.3499 10.2Z" fill="white"/>
<path d="M9.55515 9.14566C9.50966 9.19115 9.47906 9.24902 9.46608 9.31142L9.00633 11.6112C8.9849 11.7178 9.01871 11.8277 9.0954 11.9051C9.1572 11.9669 9.24043 12 9.32569 12C9.34641 12 9.36796 11.9981 9.3894 11.9936L11.6883 11.5338C11.752 11.5207 11.8098 11.4902 11.8547 11.4446L17 6.29893L14.7011 4L9.55515 9.14566Z" fill="white"/>
<path d="M18.4818 2.5177C17.7918 1.82743 16.6691 1.82743 15.9796 2.5177L15 3.49742L17.5022 6L18.4818 5.02015C18.816 4.68675 19 4.24213 19 3.76925C19 3.29637 18.816 2.85175 18.4818 2.5177Z" fill="white"/>
</svg>
