<svg width="44" height="44" viewBox="0 0 44 44" fill="none" xmlns="http://www.w3.org/2000/svg">
<path d="M41.344 7.30371H38.6881V15.2715H44V9.95965C44 8.49268 42.811 7.30371 41.344 7.30371Z" fill="#08695A"/>
<path d="M41.3441 9.95975L33.3763 20.5835H0V4.64788C0 3.18092 1.18897 1.99194 2.65594 1.99194H15.5877C16.2924 1.99194 16.9679 2.2717 17.4663 2.77013L22 7.30381H38.6881C40.1551 7.30381 41.3441 8.49279 41.3441 9.95975Z" fill="#137E6D"/>
<path d="M38.6881 9.95972L33.3762 16.5996H41.344V9.95972H38.6881Z" fill="#8AE7FF"/>
<path d="M38.6881 9.95972V23.2394L2.65588 12.6157V9.95972H38.6881Z" fill="#BDF2FF"/>
<path d="M2.65588 12.6157H28.4123V20.5835H2.65588V12.6157Z" fill="white"/>
<path d="M41.344 12.6157L38.6881 15.2717V42.0081H41.344C42.811 42.0081 44 40.8191 44 39.3521V15.2717C44 13.8047 42.811 12.6157 41.344 12.6157Z" fill="#137E6D"/>
<path d="M41.3441 12.6157V39.3521C41.3441 40.8191 40.1551 42.0081 38.6881 42.0081H2.65594C1.18897 42.0081 0 40.8191 0 39.3521V20.5835C0 19.1166 1.18897 17.9276 2.65594 17.9276H22L26.5337 13.3939C27.0321 12.8955 27.7076 12.6157 28.4123 12.6157H41.3441Z" fill="#2EA18E"/>
</svg>
