<svg width="44" height="44" viewBox="0 0 44 44" fill="none" xmlns="http://www.w3.org/2000/svg">
<path d="M11 0C9.4875 0 8.25 1.2375 8.25 2.75V41.25C8.25 42.7625 9.4875 44 11 44H38.5C40.0125 44 41.25 42.7625 41.25 41.25V11L30.25 0H11Z" fill="#E2E5E7"/>
<path d="M33 11H41.25L30.25 0V8.25C30.25 9.7625 31.4875 11 33 11Z" fill="#B0B7BD"/>
<path d="M41.25 19.25L33 11H41.25V19.25Z" fill="#CAD1D8"/>
<path d="M21.9789 35.75C21.9789 36.5063 21.6183 37.125 21.1777 37.125H3.5512C3.11054 37.125 2.75 36.5063 2.75 35.75V22C2.75 21.2437 3.11054 20.625 3.5512 20.625H21.1777C21.6183 20.625 21.9789 21.2437 21.9789 22V35.75Z" fill="#F38121"/>
<path d="M11.9999 23C9.57038 23 7.59363 24.9768 7.59363 27.4065C7.59363 28.0402 7.72335 28.6453 7.97898 29.2051C9.08066 31.6159 11.1929 34.1611 11.8142 34.8837C11.8607 34.9377 11.9286 34.9688 12 34.9688C12.0714 34.9688 12.1393 34.9377 12.1858 34.8837C12.8068 34.1612 14.9191 31.6161 16.0211 29.2051C16.2769 28.6453 16.4065 28.0402 16.4065 27.4065C16.4062 24.9768 14.4295 23 11.9999 23ZM11.9999 29.6952C10.7378 29.6952 9.711 28.6684 9.711 27.4064C9.711 26.1442 10.7378 25.1174 11.9999 25.1174C13.2619 25.1174 14.2887 26.1442 14.2887 27.4064C14.2888 28.6684 13.262 29.6952 11.9999 29.6952Z" fill="white"/>
<path d="M21.2924 37.125H8.25V38.5H21.2924C21.67 38.5 21.9789 37.8813 21.9789 37.125V35.75C21.9789 36.5063 21.67 37.125 21.2924 37.125Z" fill="#CAD1D8"/>
</svg>
