<svg width="20" height="21" viewBox="0 0 20 21" fill="none" xmlns="http://www.w3.org/2000/svg">
<path d="M10.0003 16.3331C9.83477 16.3341 9.67271 16.2857 9.53478 16.1942C9.39685 16.1027 9.28929 15.9722 9.22581 15.8193C9.16234 15.6665 9.14583 15.4982 9.17839 15.3359C9.21095 15.1736 9.2911 15.0247 9.40862 14.9081L13.8253 10.4998L9.40862 6.09145C9.2721 5.93203 9.20076 5.72696 9.20886 5.51723C9.21696 5.3075 9.30391 5.10855 9.45232 4.96014C9.60073 4.81173 9.79968 4.72479 10.0094 4.71669C10.2191 4.70858 10.4242 4.77992 10.5836 4.91645L15.5836 9.91645C15.7388 10.0726 15.826 10.2838 15.826 10.5039C15.826 10.7241 15.7388 10.9353 15.5836 11.0914L10.5836 16.0914C10.4284 16.2454 10.2189 16.3322 10.0003 16.3331Z" fill="white"/>
<path d="M5.00029 16.3332C4.83477 16.3341 4.67271 16.2858 4.53478 16.1943C4.39685 16.1028 4.28929 15.9723 4.22581 15.8194C4.16234 15.6665 4.14583 15.4982 4.17839 15.3359C4.21095 15.1736 4.2911 15.0247 4.40862 14.9082L8.82529 10.4998L4.40862 6.0915C4.2517 5.93458 4.16355 5.72175 4.16355 5.49983C4.16355 5.27791 4.2517 5.06508 4.40862 4.90816C4.56554 4.75124 4.77837 4.66309 5.00029 4.66309C5.22221 4.66309 5.43504 4.75124 5.59196 4.90816L10.592 9.90816C10.7472 10.0643 10.8343 10.2755 10.8343 10.4957C10.8343 10.7158 10.7472 10.927 10.592 11.0832L5.59196 16.0832C5.51478 16.1619 5.42274 16.2245 5.32118 16.2675C5.21961 16.3104 5.11055 16.3327 5.00029 16.3332Z" fill="white"/>
</svg>
