<svg width="44" height="44" viewBox="0 0 44 44" fill="none" xmlns="http://www.w3.org/2000/svg">
<path d="M11 0C9.4875 0 8.25 1.2375 8.25 2.75V41.25C8.25 42.7625 9.4875 44 11 44H38.5C40.0125 44 41.25 42.7625 41.25 41.25V11L30.25 0H11Z" fill="#E2E5E7"/>
<path d="M33 11H41.25L30.25 0V8.25C30.25 9.7625 31.4875 11 33 11Z" fill="#B0B7BD"/>
<path d="M41.25 19.25L33 11H41.25V19.25Z" fill="#CAD1D8"/>
<path d="M35.75 35.75C35.75 36.5063 35.1312 37.125 34.375 37.125H4.125C3.36875 37.125 2.75 36.5063 2.75 35.75V22C2.75 21.2437 3.36875 20.625 4.125 20.625H34.375C35.1312 20.625 35.75 21.2437 35.75 22V35.75Z" fill="#F15642"/>
<path d="M8.74365 26.0522C8.74365 25.6892 9.02965 25.2932 9.49028 25.2932H12.0299C13.4599 25.2932 14.7469 26.2502 14.7469 28.0845C14.7469 29.8225 13.4599 30.7905 12.0299 30.7905H10.1943V32.2425C10.1943 32.7265 9.88628 33.0001 9.49028 33.0001C9.12728 33.0001 8.74365 32.7265 8.74365 32.2425V26.0522ZM10.1943 26.6778V29.4168H12.0299C12.7669 29.4168 13.3499 28.7665 13.3499 28.0845C13.3499 27.3158 12.7669 26.6778 12.0299 26.6778H10.1943Z" fill="white"/>
<path d="M16.9001 33C16.5371 33 16.1411 32.802 16.1411 32.3193V26.0741C16.1411 25.6795 16.5371 25.3921 16.9001 25.3921H19.4177C24.442 25.3921 24.332 33 19.5167 33H16.9001ZM17.5931 26.7341V31.6593H19.4177C22.3864 31.6593 22.5184 26.7341 19.4177 26.7341H17.5931Z" fill="white"/>
<path d="M26.114 26.8222V28.5699H28.9177C29.3137 28.5699 29.7097 28.9659 29.7097 29.3495C29.7097 29.7125 29.3137 30.0095 28.9177 30.0095H26.114V32.3181C26.114 32.7031 25.8404 32.9987 25.4554 32.9987C24.9714 32.9987 24.6758 32.7031 24.6758 32.3181V26.0729C24.6758 25.6782 24.9728 25.3909 25.4554 25.3909H29.315C29.799 25.3909 30.085 25.6782 30.085 26.0729C30.085 26.4249 29.799 26.8209 29.315 26.8209H26.114V26.8222Z" fill="white"/>
<path d="M34.375 37.125H8.25V38.5H34.375C35.1313 38.5 35.75 37.8812 35.75 37.125V35.75C35.75 36.5063 35.1313 37.125 34.375 37.125Z" fill="#CAD1D8"/>
</svg>
