<svg width="115" height="18" viewBox="0 0 115 18" fill="none" xmlns="http://www.w3.org/2000/svg">
<g clip-path="url(#clip0_31_207)">
<path d="M31.4167 8.24629C31.4167 8.65357 31.3664 9.01735 31.2657 9.33767C31.165 9.65799 31.0277 9.94171 30.8538 10.1888C30.6844 10.4313 30.4877 10.6395 30.2635 10.8134C30.0393 10.9873 29.8036 11.1292 29.5565 11.239C29.314 11.3488 29.0669 11.4289 28.8151 11.4792C28.5682 11.5296 28.3347 11.5547 28.1151 11.5547H24.0791V9.77011H28.1151C28.3439 9.7518 28.5498 9.70604 28.7329 9.63283C28.9204 9.55503 29.0806 9.45207 29.2133 9.32395C29.346 9.19582 29.449 9.04252 29.5222 8.86405C29.5954 8.68102 29.632 8.4751 29.632 8.24629V7.43634C29.6092 7.21211 29.5611 7.00619 29.4878 6.81858C29.4147 6.63097 29.314 6.47081 29.1858 6.3381C29.0623 6.2054 28.9113 6.10244 28.7329 6.02922C28.5544 5.95143 28.3484 5.91254 28.1151 5.91254H24.0927C23.8549 5.91254 23.6741 5.9743 23.5505 6.09786C23.427 6.22142 23.3651 6.39988 23.3651 6.63326V13.9709H21.5806V6.63326C21.5806 6.17565 21.6629 5.78669 21.8277 5.46637C21.997 5.14605 22.2052 4.8875 22.4523 4.69074C22.7039 4.49397 22.9762 4.35212 23.2691 4.26517C23.562 4.17365 23.832 4.12789 24.0791 4.12789H28.1151C28.5178 4.12789 28.8793 4.18051 29.1996 4.28576C29.5198 4.38643 29.8013 4.52371 30.0439 4.6976C30.291 4.86692 30.4992 5.06368 30.6685 5.28791C30.8423 5.51213 30.9843 5.7478 31.0941 5.9949C31.2085 6.23743 31.2908 6.48453 31.3412 6.73622C31.3915 6.98332 31.4167 7.21669 31.4167 7.43634V8.24629ZM42.7834 7.43634C42.7834 7.8436 42.7331 8.2074 42.6325 8.52772C42.5318 8.84804 42.3945 9.13175 42.2206 9.37885C42.0513 9.62139 41.8545 9.8296 41.6302 10.0035C41.406 10.1774 41.1705 10.3215 40.9234 10.4359C40.6807 10.5457 40.4336 10.6258 40.182 10.6761C39.9349 10.7265 39.7015 10.7517 39.4818 10.7517L43.209 13.9709H40.4497L36.7294 10.7517H35.4458V8.96701H39.4818C39.706 8.94871 39.9097 8.90296 40.0928 8.82973C40.2804 8.75195 40.4406 8.64899 40.5733 8.52085C40.7106 8.39273 40.8157 8.23944 40.889 8.06097C40.9622 7.87793 40.9988 7.66972 40.9988 7.43634V6.31065C40.9988 6.20998 40.9851 6.13447 40.9577 6.08413C40.9348 6.02922 40.9027 5.99032 40.8615 5.96744C40.8249 5.93999 40.7837 5.92397 40.738 5.91939C40.6968 5.91483 40.6579 5.91254 40.6213 5.91254H34.732V13.9709H32.9473V5.02708C32.9473 4.90352 32.9702 4.78683 33.016 4.67701C33.0617 4.56719 33.1236 4.47109 33.2014 4.38872C33.2836 4.30636 33.3798 4.24229 33.4896 4.19653C33.5994 4.15078 33.7183 4.12789 33.8465 4.12789H40.6213C41.0194 4.12789 41.3557 4.20111 41.6302 4.34754C41.9049 4.48939 42.1268 4.67015 42.2961 4.88979C42.4699 5.10487 42.5935 5.33825 42.6668 5.58993C42.7446 5.84161 42.7834 6.07726 42.7834 6.29692V7.43634ZM54.9052 9.98976C54.9052 10.5892 54.8024 11.1406 54.5964 11.644C54.3904 12.1473 54.1045 12.5821 53.7385 12.9481C53.3723 13.3143 52.9376 13.6002 52.4342 13.8062C51.9355 14.0075 51.3909 14.1082 50.8006 14.1082H48.3845C47.7942 14.1082 47.2474 14.0075 46.744 13.8062C46.2407 13.6002 45.8059 13.3143 45.4398 12.9481C45.0738 12.5821 44.7855 12.1473 44.5749 11.644C44.3691 11.1406 44.2661 10.5892 44.2661 9.98976V8.10901C44.2661 7.51414 44.3691 6.96501 44.5749 6.46165C44.7855 5.95372 45.0738 5.51899 45.4398 5.15749C45.8059 4.79141 46.2407 4.50541 46.744 4.29949C47.2474 4.09357 47.7942 3.99061 48.3845 3.99061H50.8006C51.3909 3.99061 51.9355 4.09357 52.4342 4.29949C52.9376 4.50541 53.3723 4.79141 53.7385 5.15749C54.1045 5.51899 54.3904 5.95372 54.5964 6.46165C54.8024 6.96501 54.9052 7.51414 54.9052 8.10901V9.98976ZM53.1207 8.10901C53.1207 7.75666 53.0635 7.43863 52.949 7.15492C52.8392 6.86663 52.6813 6.62182 52.4754 6.42047C52.274 6.21455 52.0292 6.05668 51.741 5.94685C51.4572 5.83245 51.1438 5.77525 50.8006 5.77525H48.3845C48.0367 5.77525 47.7186 5.83245 47.4304 5.94685C47.1467 6.05668 46.9018 6.21455 46.696 6.42047C46.49 6.62182 46.3299 6.86663 46.2155 7.15492C46.1057 7.43863 46.0507 7.75666 46.0507 8.10901V9.98976C46.0507 10.3421 46.1057 10.6624 46.2155 10.9507C46.3299 11.2344 46.49 11.4792 46.696 11.6852C46.9018 11.8865 47.1467 12.0444 47.4304 12.1588C47.7186 12.2686 48.0367 12.3235 48.3845 12.3235H50.7868C51.1346 12.3235 51.4504 12.2686 51.7342 12.1588C52.0224 12.0444 52.2695 11.8865 52.4754 11.6852C52.6813 11.4792 52.8392 11.2344 52.949 10.9507C53.0635 10.6624 53.1207 10.3421 53.1207 9.98976V8.10901ZM68.1253 13.9709H66.327V8.10901L63.1627 13.6757C63.0849 13.8176 62.975 13.9251 62.8332 13.9984C62.6959 14.0715 62.5473 14.1082 62.3871 14.1082C62.2315 14.1082 62.085 14.0715 61.9477 13.9984C61.815 13.9251 61.7097 13.8176 61.632 13.6757L58.4539 8.10901V13.9709H56.6694V4.88979C56.6694 4.68387 56.7288 4.50084 56.8478 4.34068C56.9714 4.18051 57.1314 4.07298 57.3283 4.01806C57.4243 3.99519 57.5205 3.98833 57.6165 3.99748C57.7127 4.00206 57.8041 4.02264 57.8912 4.05925C57.9826 4.09129 58.065 4.13933 58.1382 4.2034C58.2114 4.26288 58.2732 4.3361 58.3236 4.42304L62.3871 11.4861L66.4506 4.42304C66.5557 4.24916 66.7 4.1256 66.8829 4.05239C67.0705 3.97917 67.2651 3.96773 67.4664 4.01806C67.6586 4.07298 67.8165 4.18051 67.9401 4.34068C68.0636 4.50084 68.1253 4.68387 68.1253 4.88979V13.9709ZM80.5354 9.98976C80.5354 10.5892 80.4326 11.1406 80.2266 11.644C80.0206 12.1473 79.7347 12.5821 79.3686 12.9481C79.0025 13.3143 78.5678 13.6002 78.0644 13.8062C77.5657 14.0075 77.0211 14.1082 76.4308 14.1082H74.0147C73.4244 14.1082 72.8776 14.0075 72.3742 13.8062C71.8709 13.6002 71.436 13.3143 71.07 12.9481C70.704 12.5821 70.4157 12.1473 70.2051 11.644C69.9993 11.1406 69.8963 10.5892 69.8963 9.98976V8.10901C69.8963 7.51414 69.9993 6.96501 70.2051 6.46165C70.4157 5.95372 70.704 5.51899 71.07 5.15749C71.436 4.79141 71.8709 4.50541 72.3742 4.29949C72.8776 4.09357 73.4244 3.99061 74.0147 3.99061H76.4308C77.0211 3.99061 77.5657 4.09357 78.0644 4.29949C78.5678 4.50541 79.0025 4.79141 79.3686 5.15749C79.7347 5.51899 80.0206 5.95372 80.2266 6.46165C80.4326 6.96501 80.5354 7.51414 80.5354 8.10901V9.98976ZM78.7509 8.10901C78.7509 7.75666 78.6936 7.43863 78.5792 7.15492C78.4694 6.86663 78.3115 6.62182 78.1056 6.42047C77.9042 6.21455 77.6594 6.05668 77.3712 5.94685C77.0874 5.83245 76.7739 5.77525 76.4308 5.77525H74.0147C73.6669 5.77525 73.3488 5.83245 73.0605 5.94685C72.7769 6.05668 72.532 6.21455 72.3261 6.42047C72.1202 6.62182 71.9601 6.86663 71.8457 7.15492C71.7359 7.43863 71.681 7.75666 71.681 8.10901V9.98976C71.681 10.3421 71.7359 10.6624 71.8457 10.9507C71.9601 11.2344 72.1202 11.4792 72.3261 11.6852C72.532 11.8865 72.7769 12.0444 73.0605 12.1588C73.3488 12.2686 73.6669 12.3235 74.0147 12.3235H76.417C76.7648 12.3235 77.0806 12.2686 77.3643 12.1588C77.6526 12.0444 77.8997 11.8865 78.1056 11.6852C78.3115 11.4792 78.4694 11.2344 78.5792 10.9507C78.6936 10.6624 78.7509 10.3421 78.7509 9.98976V8.10901Z" fill="#9797A9"/>
<path d="M92.1217 9.85251C92.1217 10.452 92.0166 11.0034 91.806 11.5067C91.6001 12.0101 91.3141 12.4448 90.948 12.8109C90.582 13.1724 90.1473 13.4561 89.6439 13.6621C89.1406 13.8679 88.5936 13.9709 88.0033 13.9709H83.1849C83.0567 13.9709 82.9378 13.948 82.828 13.9023C82.718 13.8565 82.622 13.7948 82.5396 13.717C82.4618 13.6346 82.4001 13.5385 82.3543 13.4287C82.3085 13.3188 82.2856 13.1999 82.2856 13.0717V5.02712C82.2856 4.90356 82.3085 4.78687 82.3543 4.67705C82.4001 4.56723 82.4618 4.47113 82.5396 4.38876C82.622 4.3064 82.718 4.24233 82.828 4.19657C82.9378 4.15082 83.0567 4.12793 83.1849 4.12793H88.0033C88.5936 4.12793 89.1406 4.23089 89.6439 4.43681C90.1473 4.64273 90.582 4.92874 90.948 5.29482C91.3141 5.65632 91.6001 6.09104 91.806 6.59897C92.0166 7.10234 92.1217 7.65146 92.1217 8.24633V9.85251ZM90.3372 8.24633C90.3372 7.89856 90.28 7.58052 90.1655 7.29224C90.0557 7.00394 89.8978 6.75913 89.6919 6.55779C89.486 6.35187 89.2389 6.194 88.9505 6.08417C88.6669 5.96977 88.3511 5.91258 88.0033 5.91258H84.0703V12.1863H88.0033C88.3511 12.1863 88.6669 12.1314 88.9505 12.0215C89.2389 11.9071 89.486 11.7493 89.6919 11.5479C89.8978 11.342 90.0557 11.0972 90.1655 10.8135C90.28 10.5252 90.3372 10.2049 90.3372 9.85251V8.24633ZM101.965 9.9486H96.3294V8.15024H101.965V9.9486ZM102.768 13.9709H96.3294C96.0823 13.9709 95.8123 13.9275 95.5195 13.8405C95.2266 13.7535 94.9543 13.6117 94.7027 13.415C94.4556 13.2136 94.2473 12.9551 94.078 12.6393C93.9133 12.319 93.8308 11.9277 93.8308 11.4656V5.02712C93.8308 4.90356 93.8537 4.78687 93.8995 4.67705C93.9453 4.56723 94.0071 4.47113 94.0849 4.38876C94.1672 4.3064 94.2634 4.24233 94.3732 4.19657C94.483 4.15082 94.602 4.12793 94.7301 4.12793H102.768V5.91258H95.6155V11.4656C95.6155 11.6989 95.6773 11.8774 95.8008 12.001C95.9244 12.1245 96.1051 12.1863 96.3431 12.1863H102.768V13.9709ZM108.994 7.6423L112 4.12793H114.437L110.202 9.06316L114.409 13.9709H111.986L108.994 10.484L106.015 13.9709H103.585L107.785 9.06316L103.571 4.12793H105.987L108.994 7.6423Z" fill="#9797A9"/>
<path d="M3.75537 8.52645C3.78069 6.19328 5.69073 4.30947 8.04362 4.30947C8.85241 4.30825 9.6449 4.5355 10.3288 4.96476V0.51416H8.05927C0.0471161 0.51416 0 7.16763 0 7.16763V16.5856H3.75471V8.52645H3.75537Z" fill="#9797A9"/>
<path d="M12.3238 0.51416V8.30788C12.3292 8.39568 12.3323 8.48412 12.3323 8.57329C12.3323 10.9281 10.4121 12.8371 8.04344 12.8371C7.22781 12.8384 6.42888 12.6074 5.74121 12.1713V16.5856H8.03559C16.0713 16.5856 16.0713 9.51043 16.0713 9.51043V0.51416H12.3238Z" fill="#9797A9"/>
<path d="M8.03196 10.8243C9.29872 10.8243 10.3256 9.80335 10.3256 8.54397C10.3256 7.28459 9.29872 6.26367 8.03196 6.26367C6.76519 6.26367 5.73828 7.28459 5.73828 8.54397C5.73828 9.80335 6.76519 10.8243 8.03196 10.8243Z" fill="#9797A9"/>
</g>
<defs>
<clipPath id="clip0_31_207">
<rect width="114.557" height="18" fill="white"/>
</clipPath>
</defs>
</svg>
