<svg width="60" height="60" viewBox="0 0 60 60" fill="none" xmlns="http://www.w3.org/2000/svg">
<path d="M30 56C15.6635 56 4 44.3365 4 30C4 26.6321 4.63392 23.3548 5.88614 20.2586C7.80507 15.512 11.059 11.4649 15.295 8.55453C19.6325 5.57543 24.7179 4 30 4C44.3365 4 56 15.6635 56 30C56 44.3365 44.3365 56 30 56ZM30 5.96733C20.1509 5.96733 11.4009 11.8662 7.70982 20.9971C6.55285 23.8576 5.96733 26.8866 5.96733 30C5.96733 43.2514 16.7486 54.0327 30 54.0327C43.2514 54.0327 54.0327 43.2514 54.0327 30C54.0327 16.7486 43.2514 5.96733 30 5.96733Z" fill="#222222"/>
<path d="M23.9933 41.8665C23.7529 41.8665 23.5109 41.7759 23.3251 41.5948C23.2798 41.5511 18.783 37.1792 14.3597 32.773C13.9849 32.3999 13.9834 31.7925 14.3565 31.4178C14.7297 31.043 15.3371 31.0415 15.7118 31.4146C19.1343 34.8231 22.6006 38.2128 24.0074 39.5837C27.0068 36.7858 39.3338 25.2456 45.2187 19.0876C45.2405 19.0642 45.2655 19.0376 45.2905 19.0111C45.6465 18.6192 46.2523 18.5895 46.6442 18.9455C47.0361 19.3015 47.0658 19.9073 46.7098 20.2992C46.677 20.3351 46.6426 20.3726 46.6083 20.4085C39.871 27.4581 24.7974 41.4683 24.646 41.6088C24.4618 41.7806 24.2275 41.8665 23.9933 41.8665Z" fill="#2EA18E"/>
</svg>
