<svg width="6" height="12" viewBox="0 0 6 12" fill="none" xmlns="http://www.w3.org/2000/svg">
<path d="M5.16641 9.59483C5.12168 9.5293 5.03587 9.50599 4.96422 9.53994C4.1715 9.91521 3.27179 10.312 3.0952 10.3466C3.09075 10.3427 3.08369 10.3354 3.07443 10.3229C3.0505 10.2904 3.03886 10.2481 3.03886 10.1934C3.03886 9.74497 3.3773 8.38089 4.04473 6.13922C4.60749 4.25575 4.67257 3.86578 4.67257 3.73631C4.67257 3.53644 4.59604 3.36755 4.45119 3.24788C4.31358 3.1344 4.12132 3.0769 3.87979 3.0769C3.47801 3.0769 3.01235 3.22944 2.45618 3.54324C1.91722 3.84743 1.31615 4.36266 0.669777 5.07459C0.619181 5.13035 0.613892 5.21371 0.657039 5.27543C0.700251 5.33718 0.780387 5.36069 0.850074 5.33231C1.077 5.2397 2.21745 4.77253 2.38368 4.66811C2.5198 4.58278 2.63763 4.53947 2.73393 4.53947C2.73738 4.53947 2.74034 4.5396 2.74283 4.53979C2.74399 4.54618 2.74508 4.55592 2.74508 4.56988C2.74508 4.66814 2.72486 4.78446 2.68523 4.91503C1.71341 8.06374 1.24101 9.99399 1.24101 10.8162C1.24101 11.1063 1.32167 11.3399 1.48068 11.5104C1.64273 11.6843 1.8613 11.7725 2.13034 11.7725C2.41706 11.7725 2.76601 11.6527 3.1971 11.4063C3.61426 11.168 4.25096 10.6436 5.14368 9.80308C5.2015 9.74868 5.21114 9.66036 5.16641 9.59483Z" fill="white"/>
<path d="M5.13571 0.472526C4.97689 0.309964 4.77367 0.227539 4.53174 0.227539C4.23055 0.227539 3.96821 0.346566 3.75212 0.58133C3.53948 0.812224 3.43164 1.09555 3.43164 1.42342C3.43164 1.68246 3.51107 1.89714 3.66769 2.06144C3.82642 2.22822 4.0269 2.31278 4.2635 2.31278C4.55238 2.31278 4.8133 2.18708 5.03897 1.93916C5.2607 1.69559 5.37315 1.40923 5.37315 1.08804C5.37318 0.841215 5.29331 0.634151 5.13571 0.472526Z" fill="white"/>
</svg>
