<svg width="30" height="30" viewBox="0 0 30 30" fill="none" xmlns="http://www.w3.org/2000/svg">
<path d="M26.25 26.25C26.25 26.5815 26.1182 26.8995 25.8839 27.1339C25.6495 27.3682 25.3315 27.5 25 27.5C24.6685 27.5 24.3505 27.3682 24.1161 27.1339C23.8818 26.8995 23.75 26.5815 23.75 26.25V23.75C23.75 22.7555 23.3549 21.8016 22.6516 21.0984C21.9484 20.3951 20.9945 20 20 20H10C9.00544 20 8.05161 20.3951 7.34835 21.0984C6.64509 21.8016 6.25 22.7555 6.25 23.75V26.25C6.25 26.5815 6.1183 26.8995 5.88389 27.1339C5.64946 27.3682 5.33152 27.5 5 27.5C4.66848 27.5 4.35054 27.3682 4.11611 27.1339C3.8817 26.8995 3.75 26.5815 3.75 26.25V23.75C3.75 22.0924 4.40847 20.5026 5.58059 19.3306C6.75269 18.1585 8.3424 17.5 10 17.5H20C21.6576 17.5 23.2474 18.1585 24.4194 19.3306C25.5915 20.5026 26.25 22.0924 26.25 23.75V26.25ZM15 15C13.3424 15 11.7527 14.3415 10.5806 13.1694C9.40847 11.9973 8.75 10.4076 8.75 8.75C8.75 7.0924 9.40847 5.50269 10.5806 4.33059C11.7527 3.15847 13.3424 2.5 15 2.5C16.6576 2.5 18.2474 3.15847 19.4194 4.33059C20.5915 5.50269 21.25 7.0924 21.25 8.75C21.25 10.4076 20.5915 11.9973 19.4194 13.1694C18.2474 14.3415 16.6576 15 15 15ZM15 12.5C15.4925 12.5 15.9801 12.403 16.4351 12.2146C16.89 12.0261 17.3034 11.7499 17.6516 11.4016C17.9999 11.0534 18.2761 10.64 18.4645 10.1851C18.653 9.73009 18.75 9.24246 18.75 8.75C18.75 8.25754 18.653 7.76991 18.4645 7.31494C18.2761 6.85996 17.9999 6.44658 17.6516 6.09835C17.3034 5.75013 16.89 5.47391 16.4351 5.28545C15.9801 5.097 15.4925 5 15 5C14.0055 5 13.0516 5.39509 12.3484 6.09835C11.6451 6.80161 11.25 7.75544 11.25 8.75C11.25 9.74456 11.6451 10.6984 12.3484 11.4016C13.0516 12.1049 14.0055 12.5 15 12.5Z" fill="white"/>
</svg>
