<svg width="26" height="26" viewBox="0 0 26 26" fill="none" xmlns="http://www.w3.org/2000/svg">
<g clip-path="url(#clip0_774_1805)">
<path d="M24.8792 14.8873C24.8792 14.8873 21.1687 5.63849 21.1588 5.61372C21.0796 5.4552 20.3563 4.06812 18.9841 4.05822C18.9792 4.05822 18.9742 4.05822 18.9692 4.05822C17.3939 4.05822 16.4576 5.87627 16.1505 6.47569C15.8979 6.97107 16.0911 7.58039 16.5864 7.83799C17.0868 8.09559 17.6912 7.89744 17.9488 7.40206C18.2856 6.74319 18.5581 6.41129 18.7315 6.24286C18.8603 6.11901 19.1624 6.10415 19.3309 6.4856L21.3124 11.4246C20.817 11.276 20.2969 11.1967 19.7569 11.1967C17.5475 11.1967 15.6502 12.5342 14.8179 14.4365C14.2284 13.956 13.5943 13.7231 12.9355 13.7479C12.2469 13.7677 11.6623 14.065 11.1868 14.4415C10.3595 12.5342 8.4572 11.1967 6.24779 11.1967C5.70783 11.1967 5.18767 11.276 4.69724 11.4246L6.68869 6.46083C6.84721 6.09424 7.1593 6.09424 7.2881 6.21809C7.46148 6.38652 7.73394 6.71843 8.07081 7.37729C8.32345 7.87267 8.93277 8.07082 9.43311 7.81322C9.92849 7.56058 10.1266 6.9463 9.86905 6.45092C9.56191 5.8515 8.62563 4.03345 7.05032 4.03345C7.04536 4.03345 7.04041 4.03345 7.03545 4.03345C5.66324 4.04335 4.93998 5.43043 4.86072 5.58895C4.85081 5.60877 1.97759 12.7671 1.28901 14.491C1.26919 14.5455 0.897652 15.3331 0.867929 16.5766C0.788668 19.5489 3.28045 21.9663 6.24779 21.9663C9.0913 21.9663 11.4295 19.747 11.6178 16.9481C11.8853 16.5072 12.4698 15.7839 12.9999 15.7691C13.3863 15.7641 13.8916 16.1902 14.3869 16.963C14.5851 19.752 16.9184 21.9614 19.7569 21.9614C22.7243 21.9614 25.1417 19.5489 25.1417 16.5766C25.1368 16.0812 24.9832 15.1201 24.8792 14.8873ZM6.24779 19.9402C4.39506 19.9402 2.88909 18.4342 2.88909 16.5815C2.88909 16.1357 2.97826 15.7047 3.13679 15.3183L3.1566 15.2737C3.66685 14.0699 4.86072 13.2228 6.25275 13.2228C8.10548 13.2228 9.61145 14.7288 9.61145 16.5815C9.60649 18.4342 8.10053 19.9402 6.24779 19.9402ZM19.7519 19.9402C17.8992 19.9402 16.3932 18.4342 16.3932 16.5815C16.3932 14.7288 17.8992 13.2228 19.7519 13.2228C21.6047 13.2228 23.1107 14.7288 23.1107 16.5815C23.1156 18.4342 21.6047 19.9402 19.7519 19.9402Z" fill="white"/>
</g>
<defs>
<clipPath id="clip0_774_1805">
<rect width="25.3636" height="25.3636" fill="white" transform="translate(0.318115 0.318115)"/>
</clipPath>
</defs>
</svg>
