<svg width="44" height="44" viewBox="0 0 44 44" fill="none" xmlns="http://www.w3.org/2000/svg">
<path d="M11 0C9.4875 0 8.25 1.2375 8.25 2.75V41.25C8.25 42.7625 9.4875 44 11 44H38.5C40.0125 44 41.25 42.7625 41.25 41.25V11L30.25 0H11Z" fill="#E2E5E7"/>
<path d="M33 11H41.25L30.25 0V8.25C30.25 9.7625 31.4875 11 33 11Z" fill="#B0B7BD"/>
<path d="M41.25 19.25L33 11H41.25V19.25Z" fill="#CAD1D8"/>
<path d="M35.75 35.75C35.75 36.5063 35.1312 37.125 34.375 37.125H4.125C3.36875 37.125 2.75 36.5063 2.75 35.75V22C2.75 21.2437 3.36875 20.625 4.125 20.625H34.375C35.1312 20.625 35.75 21.2437 35.75 22V35.75Z" fill="#84BD5A"/>
<path d="M12.4039 28.0321L14.3165 25.6355C14.8885 24.8875 15.9995 25.8431 15.3725 26.5581C14.7139 27.3391 14.0209 28.1861 13.3609 29.0537L15.6035 31.8463C16.2085 32.6713 14.9999 33.462 14.4059 32.648L12.3819 30.0533L10.3923 32.7043C9.83126 33.506 8.58826 32.6053 9.21526 31.8573L11.4249 29.0537C10.7319 28.1847 10.0609 27.3391 9.39126 26.5581C8.69963 25.7331 9.98526 24.8875 10.4913 25.6588L12.4039 28.0321Z" fill="white"/>
<path d="M16.9607 26.0521C16.9607 25.6891 17.2687 25.3811 17.6537 25.3811C18.0057 25.3811 18.3027 25.6905 18.3027 26.0521V31.5604H21.2933C22.3699 31.5604 22.3933 33 21.2933 33H17.6551C17.2701 33 16.9621 32.7264 16.9621 32.3304V26.0521H16.9607Z" fill="white"/>
<path d="M23.3778 27.042C23.6308 24.908 26.851 24.5244 28.369 25.6904C29.117 26.294 28.325 27.251 27.665 26.767C26.851 26.2514 25.0044 26.0094 24.7734 27.1507C24.4764 28.9547 29.2587 27.922 29.1817 30.8467C29.1047 33.6393 25.0594 33.7039 23.5414 32.4513C23.177 32.1543 23.1894 31.6717 23.3874 31.3733C23.6734 31.0887 23.991 30.9897 24.3664 31.2977C25.267 31.9123 27.588 32.3743 27.7517 30.8123C27.61 29.187 23.0368 30.1647 23.3778 27.042Z" fill="white"/>
<path d="M34.375 37.125H8.25V38.5H34.375C35.1313 38.5 35.75 37.8812 35.75 37.125V35.75C35.75 36.5063 35.1313 37.125 34.375 37.125Z" fill="#CAD1D8"/>
</svg>
