<svg width="46" height="46" viewBox="0 0 46 46" fill="none" xmlns="http://www.w3.org/2000/svg">
<g clip-path="url(#clip0_191_296)">
<path d="M20.305 3.59393H20.3043C19.8081 3.59393 19.4062 3.99625 19.4062 4.49237C19.4062 4.98849 19.8087 5.39081 20.305 5.39081C20.8012 5.39081 21.2034 4.98849 21.2034 4.49237C21.2034 3.99625 20.8012 3.59393 20.305 3.59393Z" fill="#2EA18E"/>
<path d="M43.6642 18.6466C43.6642 18.1659 43.4777 17.7147 43.1391 17.376L41.2332 15.47C40.5326 14.7695 39.3928 14.7695 38.6921 15.47L38.2734 15.8886V7.18756C38.2734 5.70137 37.0643 4.49226 35.5781 4.49226H31.7412C31.4299 3.95616 30.8508 3.59392 30.1875 3.59392H24.7068C24.2896 1.54576 22.4743 0 20.3047 0C18.1352 0 16.3199 1.54576 15.9027 3.59392H10.422C9.75865 3.59392 9.17961 3.95616 8.8683 4.49226H5.03136C3.54517 4.49226 2.33606 5.70137 2.33606 7.18756V8.98443C2.33606 9.48055 2.73829 9.88286 3.23449 9.88286C3.7307 9.88286 4.13293 9.48055 4.13293 8.98443V7.18756C4.13293 6.69217 4.53596 6.28913 5.03136 6.28913H8.6251V8.086H6.82823C6.33202 8.086 5.9298 8.48831 5.9298 8.98443V41.5078C5.9298 42.0039 6.33202 42.4063 6.82823 42.4063H22.1015C22.5977 42.4063 23 42.0039 23 41.5078C23 41.0117 22.5977 40.6094 22.1015 40.6094H7.72666V9.88286H8.86821C9.17952 10.419 9.75856 10.7813 10.422 10.7813H30.1875C30.8509 10.7813 31.43 10.419 31.7413 9.88286H32.8828V21.2792L22.8098 31.3523C22.7312 31.4309 22.67 31.524 22.6254 31.6248H18.5081C18.0119 31.6248 17.6097 32.0271 17.6097 32.5232C17.6097 33.0193 18.0119 33.4217 18.5081 33.4217H22.1922L21.7775 35.2186H18.5081C18.0119 35.2186 17.6097 35.6209 17.6097 36.117C17.6097 36.6132 18.0119 37.0155 18.5081 37.0155H22.4922C22.5251 37.0155 22.5576 37.0134 22.5896 37.01C22.5971 37.0092 22.6045 37.0076 22.6118 37.0066C22.6371 37.0033 22.6621 36.9992 22.6865 36.9938C22.689 36.9933 22.6916 36.9931 22.6941 36.9925L26.8236 36.0395C26.9877 36.0016 27.1379 35.9184 27.2569 35.7994L32.8829 30.1734V40.6094H30.1875C29.6913 40.6094 29.2891 41.0117 29.2891 41.5078C29.2891 42.0039 29.6913 42.4063 30.1875 42.4063H33.7812C34.2775 42.4063 34.6797 42.0039 34.6797 41.5078V28.3765L36.4766 26.5796V43.3047C36.4766 43.8001 36.0735 44.2031 35.5781 44.2031H5.03136C4.53596 44.2031 4.13293 43.8001 4.13293 43.3047V17.0703C4.13293 16.5742 3.7307 16.1719 3.23449 16.1719C2.73829 16.1719 2.33606 16.5742 2.33606 17.0703V43.3047C2.33606 44.7909 3.54517 46 5.03136 46H35.5781C37.0643 46 38.2734 44.7909 38.2734 43.3047V24.7828L43.139 19.9172C43.4777 19.5785 43.6642 19.1273 43.6642 18.6466ZM30.1875 8.98443H10.422L10.4218 5.39078H10.422H16.7109C17.2071 5.39078 17.6093 4.98846 17.6093 4.49235C17.6093 3.00607 18.8185 1.79687 20.3047 1.79687C21.791 1.79687 23.0001 3.00607 23.0001 4.49235C23.0001 4.98846 23.4024 5.39078 23.8986 5.39078H30.1875V8.98443ZM28.4186 32.0965L26.5127 30.1905L35.7334 20.9697L37.6393 22.8757L28.4186 32.0965ZM33.7812 8.086H31.9844V6.28913H35.5781C36.0735 6.28913 36.4766 6.69217 36.4766 7.18756V17.6855L34.6797 19.4824V8.98443C34.6797 8.48831 34.2775 8.086 33.7812 8.086ZM26.1685 34.3466L23.6908 34.9184L24.2626 32.4407L25.242 31.4613L27.1478 33.3671L26.1685 34.3466ZM38.9099 21.6051L37.0039 19.6992L39.9625 16.7406L39.9626 16.7407L41.8684 18.6465L38.9099 21.6051Z" fill="#2EA18E"/>
<path d="M15.8125 15.0034C15.8125 14.0127 15.0064 13.2066 14.0156 13.2066H11.3203C10.3295 13.2066 9.52344 14.0127 9.52344 15.0034V17.6988C9.52344 18.6896 10.3295 19.4957 11.3203 19.4957H14.0156C15.0064 19.4957 15.8125 18.6896 15.8125 17.6988V15.0034ZM11.3203 17.6988L11.3201 15.0035L14.0156 15.0034V17.6988H11.3203Z" fill="#2EA18E"/>
<path d="M15.8125 23.9879C15.8125 22.9971 15.0064 22.191 14.0156 22.191H11.3203C10.3295 22.191 9.52344 22.9971 9.52344 23.9879V26.6833C9.52344 27.674 10.3295 28.4801 11.3203 28.4801H14.0156C15.0064 28.4801 15.8125 27.674 15.8125 26.6833V23.9879ZM11.3203 26.6833L11.3201 23.9879H14.0156V26.6832L11.3203 26.6833Z" fill="#2EA18E"/>
<path d="M14.0156 31.1755H11.3203C10.3295 31.1755 9.52344 31.9816 9.52344 32.9724V35.6677C9.52344 36.6585 10.3295 37.4646 11.3203 37.4646H14.0156C15.0064 37.4646 15.8125 36.6585 15.8125 35.6677V32.9724C15.8125 31.9816 15.0064 31.1755 14.0156 31.1755ZM11.3203 35.6677L11.3201 32.9724H14.0156V35.6677H11.3203Z" fill="#2EA18E"/>
<path d="M18.5078 15.4527H28.3904C28.8866 15.4527 29.2888 15.0504 29.2888 14.5543C29.2888 14.0581 28.8866 13.6558 28.3904 13.6558H18.5078C18.0116 13.6558 17.6094 14.0581 17.6094 14.5543C17.6094 15.0504 18.0116 15.4527 18.5078 15.4527Z" fill="#2EA18E"/>
<path d="M18.5078 19.0464H24.3476C24.8438 19.0464 25.246 18.6441 25.246 18.148C25.246 17.6519 24.8438 17.2496 24.3476 17.2496H18.5078C18.0116 17.2496 17.6094 17.6519 17.6094 18.148C17.6094 18.6441 18.0116 19.0464 18.5078 19.0464Z" fill="#2EA18E"/>
<path d="M18.5078 24.4371H28.3904C28.8866 24.4371 29.2888 24.0348 29.2888 23.5387C29.2888 23.0426 28.8866 22.6403 28.3904 22.6403H18.5078C18.0116 22.6403 17.6094 23.0426 17.6094 23.5387C17.6094 24.0348 18.0116 24.4371 18.5078 24.4371Z" fill="#2EA18E"/>
<path d="M18.5078 28.0309H24.3476C24.8438 28.0309 25.246 27.6286 25.246 27.1324C25.246 26.6363 24.8438 26.234 24.3476 26.234H18.5078C18.0116 26.234 17.6094 26.6363 17.6094 27.1324C17.6094 27.6286 18.0116 28.0309 18.5078 28.0309Z" fill="#2EA18E"/>
<path d="M3.23437 13.9261C3.73058 13.9261 4.13281 13.5238 4.13281 13.0277V13.027C4.13281 12.5309 3.73058 12.129 3.23437 12.129C2.73817 12.129 2.33594 12.5315 2.33594 13.0277C2.33594 13.5239 2.73817 13.9261 3.23437 13.9261Z" fill="#2EA18E"/>
<path d="M27.0432 41.5078C27.0432 41.0117 26.641 40.6094 26.1448 40.6094H26.1442C25.648 40.6094 25.2461 41.0117 25.2461 41.5078C25.2461 42.0039 25.6486 42.4062 26.1448 42.4062C26.641 42.4062 27.0432 42.0039 27.0432 41.5078Z" fill="#2EA18E"/>
</g>
<defs>
<clipPath id="clip0_191_296">
<rect width="46" height="46" fill="white"/>
</clipPath>
</defs>
</svg>
