<svg width="44" height="44" viewBox="0 0 44 44" fill="none" xmlns="http://www.w3.org/2000/svg">
<path d="M43.2701 15.1501C42.9552 15.9583 42.3483 16.2439 41.5045 16.2147C40.4821 16.179 39.4597 16.205 38.3724 16.205C39.1027 19.9991 39.8232 23.751 40.547 27.5127C40.7839 27.5386 41.0014 27.5516 41.2188 27.5938C42.0951 27.7528 42.6469 28.6129 42.3872 29.46C42.0108 30.6836 41.3519 31.7482 40.4756 32.6764C40.1997 32.9685 39.8492 32.988 39.5863 32.7576C39.3234 32.5271 39.2845 32.1734 39.5506 31.8683C40.2127 31.112 40.7709 30.2974 41.115 29.3464C41.274 28.905 41.2091 28.7947 40.7352 28.7947C36.4997 28.7914 32.261 28.7914 28.0254 28.7947C27.5581 28.7947 27.4899 28.905 27.649 29.3529C28.6843 32.248 31.5826 34.1759 34.6465 34.0299C35.6267 33.9844 36.5581 33.767 37.4474 33.3483C37.5481 33.2996 37.6487 33.2509 37.7525 33.2152C38.1258 33.0886 38.4633 33.2152 38.5931 33.53C38.7262 33.8481 38.6029 34.2084 38.2329 34.3447C37.4345 34.6433 36.6328 34.9873 35.8019 35.1463C31.7839 35.9091 27.7139 33.4878 26.4124 29.6158C26.0813 28.6259 26.6396 27.7171 27.6717 27.5711C27.834 27.5484 27.9995 27.5419 28.2104 27.5257C28.931 23.7737 29.6547 20.0186 30.3818 16.2342C28.5415 16.2342 26.7337 16.2342 24.8707 16.2342C24.8707 16.4257 24.8707 16.6009 24.8707 16.7762C24.8707 21.9951 24.8902 27.2173 24.8577 32.4363C24.848 33.8611 25.4095 34.9743 26.3994 35.9253C27.4185 36.9022 28.5967 37.6455 29.8722 38.2394C30.0053 38.3011 30.1611 38.327 30.3071 38.3433C32.5206 38.577 34.2018 40.3328 34.3381 42.5528C34.3738 43.1176 34.1921 43.3155 33.6436 43.3155C25.8898 43.3155 18.1361 43.3155 10.3823 43.3155C9.8046 43.3155 9.62934 43.1208 9.66828 42.5301C9.81758 40.362 11.3852 38.7003 13.55 38.3433C14.0401 38.2621 14.527 38.0544 14.9651 37.811C16.3575 37.045 17.6492 36.1492 18.5385 34.7828C18.941 34.1629 19.139 33.4813 19.139 32.7446C19.139 27.3439 19.139 21.9432 19.139 16.5458C19.139 16.4516 19.1227 16.3575 19.113 16.2342C17.2922 16.2342 15.4877 16.2342 13.6312 16.2342C14.3549 19.9958 15.0722 23.7348 15.7992 27.5159C15.942 27.5289 16.0881 27.5354 16.2341 27.5516C17.3571 27.662 17.977 28.6129 17.5713 29.6678C16.325 32.9004 13.972 34.7958 10.5414 35.2275C6.73426 35.7078 3.06672 33.4099 1.73927 29.83C1.25567 28.5221 1.85611 27.623 3.2647 27.5419C3.31988 27.5386 3.37181 27.5257 3.45619 27.5127C4.17672 23.7672 4.89724 20.0251 5.6275 16.2277C5.46198 16.218 5.31917 16.205 5.17636 16.205C4.22216 16.2017 3.2647 16.2082 2.31049 16.2017C1.25892 16.1952 0.739618 15.663 0.736372 14.6049C0.736372 14.1213 0.729881 13.6344 0.739618 13.1509C0.755846 12.3102 1.31409 11.7487 2.15795 11.7423C3.31988 11.7325 4.48505 11.7358 5.64698 11.7423C6.11434 11.7455 6.38373 11.9695 6.39347 12.3427C6.40645 12.7354 6.13057 12.9821 5.64698 12.9853C4.55321 12.9918 3.45944 12.9951 2.36567 12.9821C2.08655 12.9788 1.96646 13.047 1.97944 13.3521C2.00216 13.8616 1.98593 14.3744 1.98593 14.923C2.18067 14.9359 2.3397 14.9587 2.50198 14.9587C7.88969 14.9619 13.2742 14.9554 18.6619 14.9684C19.0384 14.9684 19.1779 14.8743 19.1487 14.488C19.1162 14.0077 19.1422 13.5241 19.1422 12.9918C18.9442 12.9918 18.782 12.9918 18.6197 12.9918C15.2832 12.9918 11.9467 12.9918 8.61022 12.9918C7.96434 12.9918 7.6625 12.8003 7.64952 12.3849C7.63329 11.9532 7.94811 11.7455 8.61671 11.7455C11.9402 11.7455 15.2637 11.7455 18.5872 11.7455C18.7527 11.7455 18.915 11.7455 19.139 11.7455C19.139 11.0315 19.152 10.3466 19.126 9.66182C19.1227 9.54498 18.9702 9.41516 18.8598 9.31779C17.3084 7.95139 16.7859 5.84499 17.5291 3.91385C18.2399 2.0671 20.0932 0.83377 22.1087 0.866226C24.0561 0.898682 25.8347 2.15473 26.5097 3.98201C27.2076 5.86122 26.7077 7.94165 25.2212 9.24639C24.9681 9.46709 24.8512 9.68454 24.8675 10.0221C24.8934 10.5738 24.874 11.1288 24.874 11.7455C25.059 11.7455 25.2212 11.7455 25.3803 11.7455C30.781 11.7455 36.1817 11.7552 41.5791 11.7358C42.4197 11.7325 42.9942 12.0214 43.2766 12.8263C43.2701 13.602 43.2701 14.3777 43.2701 15.1501ZM27.3731 38.3076C26.9706 38.0025 26.6168 37.7461 26.2793 37.4734C24.5299 36.0584 23.5627 34.3414 23.5887 31.9754C23.6731 24.9162 23.6179 17.8537 23.6179 10.7913C23.6179 10.616 23.6179 10.4408 23.6179 10.2103C22.5144 10.5803 21.4661 10.5544 20.3788 10.2266C20.3788 10.4732 20.3788 10.6517 20.3788 10.8302C20.3788 18.0452 20.3788 25.257 20.3755 32.472C20.3755 32.9004 20.3658 33.3353 20.2782 33.7507C19.9439 35.3378 18.928 36.4738 17.7239 37.4734C17.3896 37.7526 17.0326 38.0025 16.6269 38.3108C20.236 38.3076 23.7672 38.3076 27.3731 38.3076ZM9.6196 28.7947C7.52943 28.7947 5.4425 28.7947 3.35233 28.7947C2.77461 28.7947 2.71295 28.8888 2.91742 29.4276C3.95277 32.1961 6.64338 34.0461 9.63258 34.0396C12.625 34.0363 15.3059 32.1896 16.3413 29.4178C16.5392 28.8888 16.4711 28.7947 15.8901 28.7947C13.7967 28.7914 11.7065 28.7947 9.6196 28.7947ZM32.9977 42.1406C32.79 40.7061 31.482 39.5896 29.9306 39.5863C24.6435 39.5701 19.3564 39.5766 14.0693 39.5831C13.3553 39.5831 12.7094 39.8103 12.1447 40.2549C11.5345 40.7353 11.1321 41.3455 10.9828 42.1439C18.3503 42.1406 25.6594 42.1406 32.9977 42.1406ZM21.9951 9.24639C23.936 9.24963 25.5653 7.64955 25.5718 5.72815C25.5783 3.74508 23.9749 2.11579 22.0081 2.10929C20.0477 2.1028 18.4347 3.7321 18.4314 5.71517C18.4314 7.63657 20.0542 9.24314 21.9951 9.24639ZM42.0237 14.923C42.0237 14.4199 41.9978 13.9493 42.0302 13.4819C42.0594 13.073 41.9134 12.9788 41.5207 12.9821C36.1265 12.9951 30.729 12.9918 25.3348 12.9918C25.1888 12.9918 25.0427 12.9918 24.8902 12.9918C24.8902 13.6702 24.8902 14.2868 24.8902 14.9262C30.6057 14.923 36.2952 14.923 42.0237 14.923ZM7.26653 27.5192C8.86662 27.5192 10.4083 27.5192 11.9662 27.5192C11.9499 27.3796 11.9467 27.2692 11.924 27.1621C11.2457 23.6374 10.5673 20.1127 9.876 16.588C9.85004 16.4516 9.70399 16.3348 9.61311 16.2115C9.53197 16.3315 9.40539 16.4451 9.37943 16.5782C8.90881 18.9637 8.44794 21.3493 7.99031 23.7348C7.74689 24.9811 7.50996 26.2274 7.26653 27.5192ZM36.7139 27.5224C36.701 27.3926 36.701 27.2822 36.6782 27.1784C35.9967 23.6407 35.3151 20.0997 34.6238 16.562C34.5978 16.4322 34.4615 16.3283 34.3771 16.2115C34.2927 16.3283 34.1564 16.4322 34.1304 16.562C33.5722 19.3922 33.0269 22.2288 32.4817 25.0622C32.3259 25.8736 32.1766 26.685 32.0175 27.5257C33.6079 27.5224 35.1496 27.5224 36.7139 27.5224ZM35.8474 16.2309C35.9999 17.0326 36.146 17.7986 36.292 18.5678C36.847 21.4596 37.402 24.3482 37.9635 27.2368C37.9862 27.3471 38.0901 27.5224 38.1712 27.5289C38.5315 27.5614 38.8982 27.5419 39.2877 27.5419C38.5509 23.7186 37.8304 19.9666 37.1099 16.2277C36.6652 16.2309 36.2823 16.2309 35.8474 16.2309ZM4.71873 27.5484C5.03356 27.5484 5.32242 27.5289 5.60478 27.5549C5.89364 27.5776 6.00724 27.4867 6.06241 27.1849C6.6239 24.2119 7.20162 21.2422 7.7761 18.2692C7.90592 17.6006 8.02601 16.9255 8.15259 16.2374C7.69496 16.2374 7.30224 16.2374 6.89654 16.2374C6.16952 20.0056 5.449 23.7478 4.71873 27.5484ZM11.0899 16.2309C11.8169 20.0153 12.5374 23.7672 13.2579 27.5094C13.7026 27.5094 14.1018 27.5094 14.5237 27.5094C13.7935 23.7186 13.0729 19.9666 12.3524 16.2309C11.9078 16.2309 11.5248 16.2309 11.0899 16.2309ZM31.6508 16.2244C30.9238 20.0088 30.2032 23.751 29.473 27.5451C29.8073 27.5451 30.1091 27.5289 30.4077 27.5516C30.6739 27.5711 30.7615 27.4607 30.8102 27.2141C31.4074 24.0658 32.0175 20.9176 32.6245 17.7694C32.7218 17.263 32.8095 16.7567 32.9068 16.2244C32.4557 16.2244 32.0727 16.2244 31.6508 16.2244Z" fill="#2CA18E"/>
</svg>
