<svg width="46" height="46" viewBox="0 0 46 46" fill="none" xmlns="http://www.w3.org/2000/svg">
<g clip-path="url(#clip0_191_316)">
<path d="M38.2735 4.49218H34.4365C34.1252 3.95608 33.5462 3.59383 32.883 3.59383H27.4022C26.9849 1.54576 25.1696 0 23.0002 0C20.8306 0 19.0153 1.54576 18.5981 3.59383H13.1173C12.454 3.59383 11.8748 3.95608 11.5636 4.49218H7.72668C6.24049 4.49218 5.03137 5.70129 5.03137 7.18749V8.98436C5.03137 9.48056 5.43369 9.88279 5.92981 9.88279C6.42592 9.88279 6.82824 9.48056 6.82824 8.98436V7.18749C6.82824 6.69209 7.23128 6.28905 7.72668 6.28905H11.3204V8.08592H9.52364C9.02752 8.08592 8.62521 8.48815 8.62521 8.98436V41.5078C8.62521 42.004 9.02752 42.4063 9.52364 42.4063H24.7969C25.293 42.4063 25.6953 42.004 25.6953 41.5078C25.6953 41.0116 25.293 40.6094 24.7969 40.6094H10.4221V9.88279H11.5635C11.8748 10.419 12.4539 10.7812 13.1173 10.7812H32.883C33.5463 10.7812 34.1253 10.419 34.4366 9.88279H35.5783V40.6094H32.8828C32.3867 40.6094 31.9844 41.0116 31.9844 41.5078C31.9844 42.004 32.3867 42.4063 32.8828 42.4063H36.4767C36.9728 42.4063 37.3752 42.004 37.3752 41.5078V8.98436C37.3752 8.48815 36.9728 8.08592 36.4767 8.08592H34.6798V6.28905H38.2735C38.7689 6.28905 39.1719 6.69209 39.1719 7.18749V43.3047C39.1719 43.8001 38.7689 44.2031 38.2735 44.2031H7.72668C7.23128 44.2031 6.82824 43.8001 6.82824 43.3047V17.0703C6.82824 16.5741 6.42592 16.1718 5.92981 16.1718C5.43369 16.1718 5.03137 16.5741 5.03137 17.0703V43.3047C5.03137 44.7909 6.24049 46 7.72668 46H38.2735C39.7597 46 40.9688 44.7909 40.9688 43.3047V7.18749C40.9688 5.70129 39.7597 4.49218 38.2735 4.49218ZM13.1173 8.98436L13.1171 5.3907H19.4063C19.9024 5.3907 20.3047 4.98847 20.3047 4.49227C20.3047 3.00599 21.5139 1.79687 23.0002 1.79687C24.4865 1.79687 25.6956 3.00599 25.6956 4.49227C25.6956 4.98847 26.0979 5.3907 26.594 5.3907H32.8829L32.883 8.98436H13.1173Z" fill="#2EA18E"/>
<path d="M23.0005 3.59381H22.9998C22.5036 3.59381 22.1017 3.99604 22.1017 4.49225C22.1017 4.98846 22.5043 5.39069 23.0005 5.39069C23.4967 5.39069 23.8989 4.98846 23.8989 4.49225C23.8989 3.99604 23.4966 3.59381 23.0005 3.59381Z" fill="#2EA18E"/>
<path d="M32.8831 25.2462C32.8831 19.7968 28.4496 15.3633 23.0003 15.3633C17.5509 15.3633 13.1174 19.7968 13.1174 25.2462C13.1174 30.6955 17.5509 35.129 23.0003 35.129C28.4496 35.129 32.8831 30.6955 32.8831 25.2462ZM23.0003 33.3321C18.5417 33.3321 14.9143 29.7047 14.9143 25.2462C14.9143 20.7876 18.5417 17.1602 23.0003 17.1602C27.4588 17.1602 31.0862 20.7876 31.0862 25.2462C31.0862 29.7047 27.4588 33.3321 23.0003 33.3321Z" fill="#2EA18E"/>
<path d="M28.2622 21.1476C27.7531 20.6386 27.0763 20.3583 26.3564 20.3583C25.6365 20.3583 24.9597 20.6387 24.4506 21.1476L21.9709 23.6273L21.5496 23.206C21.0405 22.6969 20.3637 22.4166 19.6438 22.4166C18.9239 22.4166 18.2471 22.697 17.738 23.206C16.6874 24.2569 16.6874 25.9667 17.738 27.0175L20.0652 29.3446C20.5907 29.87 21.2808 30.1327 21.9709 30.1327C22.6611 30.1327 23.3512 29.87 23.8767 29.3446L28.2622 24.9592C28.7712 24.4501 29.0515 23.7733 29.0515 23.0534C29.0515 22.3335 28.7712 21.6567 28.2622 21.1476ZM26.9915 23.6886L22.6061 28.074C22.2558 28.4243 21.6861 28.4243 21.3358 28.074L19.0086 25.7469C18.6585 25.3967 18.6585 24.8268 19.0086 24.4766C19.1782 24.3069 19.4038 24.2136 19.6437 24.2136C19.8837 24.2136 20.1093 24.307 20.2788 24.4766L21.3356 25.5333C21.6865 25.8841 22.2552 25.8841 22.6062 25.5333L25.7212 22.4183C26.0714 22.0681 26.6412 22.0681 26.9915 22.4183C27.1612 22.5879 27.2547 22.8134 27.2547 23.0534C27.2547 23.2934 27.1612 23.5189 26.9915 23.6886Z" fill="#2EA18E"/>
<path d="M5.92981 13.9261C6.42593 13.9261 6.82825 13.5239 6.82825 13.0277V13.027C6.82825 12.5308 6.42593 12.129 5.92981 12.129C5.43369 12.129 5.03137 12.5315 5.03137 13.0277C5.03137 13.5239 5.4336 13.9261 5.92981 13.9261Z" fill="#2EA18E"/>
<path d="M28.8403 42.4062C29.3364 42.4062 29.7388 42.004 29.7388 41.5078C29.7388 41.0116 29.3364 40.6094 28.8403 40.6094H28.8396C28.3435 40.6094 27.9415 41.0116 27.9415 41.5078C27.9415 42.004 28.3441 42.4062 28.8403 42.4062Z" fill="#2EA18E"/>
</g>
<defs>
<clipPath id="clip0_191_316">
<rect width="46" height="46" fill="white"/>
</clipPath>
</defs>
</svg>
