<svg width="46" height="46" viewBox="0 0 46 46" fill="none" xmlns="http://www.w3.org/2000/svg">
<path d="M39.6211 19.7656H37.8242V14.8242C37.8242 10.8647 36.2821 7.14202 33.4822 4.34204C31.6361 2.49602 29.3343 1.16696 26.8253 0.498527C26.3461 0.371218 25.8537 0.655933 25.7259 1.13543C25.5981 1.61484 25.8833 2.10709 26.3628 2.23485C28.5664 2.82198 30.5889 3.98995 32.2116 5.61261C34.6722 8.07325 36.0273 11.3446 36.0273 14.8242V19.7656H33.332V14.8242C33.332 12.065 32.2575 9.47032 30.306 7.51784C28.3539 5.5667 25.7592 4.49217 23 4.49217C17.3029 4.49217 12.668 9.12712 12.668 14.8242V19.7656H9.97266V14.8242C9.97266 8.92776 13.9469 3.75078 19.6372 2.23485C20.1167 2.10709 20.4019 1.61484 20.2741 1.13543C20.1464 0.655933 19.6542 0.370949 19.1747 0.498527C12.6987 2.22371 8.17578 8.11467 8.17578 14.8242V19.7656H6.37891C5.38811 19.7656 4.58203 20.5717 4.58203 21.5625V44.2031C4.58203 45.1939 5.38811 46 6.37891 46H39.6211C40.6119 46 41.418 45.1939 41.418 44.2031V21.5625C41.418 20.5717 40.6119 19.7656 39.6211 19.7656ZM39.6213 24.9166H31.5547L29.2145 21.5625H39.6211L39.6213 24.9166ZM14.4648 14.8242C14.4648 10.1179 18.2937 6.28905 23 6.28905C25.2794 6.28905 27.4229 7.17679 29.0354 8.78841C30.6474 10.4013 31.5352 12.5448 31.5352 14.8242V19.7656H14.4648V14.8242ZM6.37891 40.849H14.4453L16.7855 44.2031H6.37891V40.849ZM39.6211 44.2031H31.1886L34.6027 40.7891C34.942 40.4497 35.1289 39.9984 35.1289 39.5185V37.2205C36.1746 36.8496 36.9258 35.851 36.9258 34.6797C36.9258 33.1935 35.7167 31.9844 34.2305 31.9844C32.7443 31.9844 31.5352 33.1935 31.5352 34.6797C31.5352 35.8509 32.2863 36.8496 33.332 37.2205V39.5185L28.6473 44.2031H18.9764L15.919 39.8208C15.5832 39.3394 15.0323 39.052 14.4453 39.052H6.37891V21.5625H14.8114L11.3973 24.9765C11.058 25.3159 10.8711 25.7672 10.8711 26.2471V28.5451C9.8254 28.916 9.07422 29.9146 9.07422 31.0859C9.07422 32.5721 10.2833 33.7812 11.7695 33.7812C13.2557 33.7812 14.4648 32.5721 14.4648 31.0859C14.4648 29.9147 13.7137 28.916 12.668 28.5451V26.2471L17.3527 21.5625H27.0236L30.081 25.9448C30.4168 26.4262 30.9677 26.7136 31.5547 26.7136H39.6214L39.6223 44.2031C39.6223 44.2031 39.6219 44.2031 39.6211 44.2031ZM33.332 34.6797C33.332 34.1843 33.7351 33.7812 34.2305 33.7812C34.7259 33.7812 35.1289 34.1843 35.1289 34.6797C35.1289 35.1751 34.7259 35.5781 34.2305 35.5781C33.7351 35.5781 33.332 35.1751 33.332 34.6797ZM12.668 31.0859C12.668 31.5813 12.2649 31.9844 11.7695 31.9844C11.2741 31.9844 10.8711 31.5813 10.8711 31.0859C10.8711 30.5905 11.2741 30.1875 11.7695 30.1875C12.2649 30.1875 12.668 30.5905 12.668 31.0859Z" fill="#2EA18E"/>
<path d="M23 26.5938C20.523 26.5938 18.5078 28.6089 18.5078 31.0859C18.5078 32.5032 19.1849 33.836 20.3047 34.6784V36.4766C20.3047 37.9628 21.5138 39.1719 23 39.1719C24.4862 39.1719 25.6953 37.9628 25.6953 36.4766V34.6784C26.8151 33.8361 27.4922 32.5032 27.4922 31.0859C27.4922 28.6089 25.477 26.5938 23 26.5938ZM24.3468 33.4201C24.0693 33.5807 23.8984 33.877 23.8984 34.1977V36.4766C23.8984 36.972 23.4954 37.375 23 37.375C22.5046 37.375 22.1016 36.972 22.1016 36.4766V34.1977C22.1016 33.877 21.9307 33.5807 21.6532 33.4201C20.8214 32.9388 20.3047 32.0444 20.3047 31.0859C20.3047 29.5997 21.5138 28.3906 23 28.3906C24.4862 28.3906 25.6953 29.5997 25.6953 31.0859C25.6953 32.0444 25.1786 32.9388 24.3468 33.4201Z" fill="#2EA18E"/>
<path d="M23 1.79688C23.4962 1.79688 23.8984 1.39463 23.8984 0.898438C23.8984 0.402244 23.4962 0 23 0C22.5038 0 22.1016 0.402244 22.1016 0.898438C22.1016 1.39463 22.5038 1.79688 23 1.79688Z" fill="#2EA18E"/>
</svg>
