<svg width="218" height="48" viewBox="0 0 218 48" fill="none" xmlns="http://www.w3.org/2000/svg">
<g clip-path="url(#clip0_31_352)">
<path d="M23.3917 46.5975C17.281 46.5975 12.012 42.2558 10.8965 36.2856C10.8341 35.9505 10.6945 35.8449 10.3678 35.7751C4.94861 34.6221 1.15891 30.7095 0.187162 25.2899C-0.982317 18.769 3.44817 12.1751 9.94692 10.8001C10.4756 10.6881 10.7093 10.5158 10.8309 9.94619C11.9602 4.69776 16.3621 0.739767 21.7242 0.0950745C28.4714 -0.716604 34.6128 3.75714 35.8372 10.3901C35.8965 10.7092 36.054 10.7536 36.3184 10.8149C41.8094 12.0885 45.2703 15.4493 46.4588 20.9651C47.8958 27.634 43.331 34.4847 36.6514 35.8205C36.182 35.9146 36.0149 36.1059 35.9134 36.572C34.6191 42.4852 29.4664 46.5964 23.3917 46.5964V46.5975ZM42.6585 23.3526C42.6796 21.6511 42.2186 20.0816 41.2976 18.6601C40.1144 16.8338 38.4723 15.5994 36.3818 14.9642C36.0699 14.8691 35.8848 14.8321 35.8108 15.2697C35.7093 15.8721 35.52 16.465 35.317 17.0441C35.207 17.3591 35.2779 17.45 35.5792 17.5409C38.3084 18.3642 40.0235 20.6481 39.9611 23.489C39.905 26.0593 38.6277 27.8972 36.3004 28.9456C34.0809 29.9443 31.43 29.4296 29.7213 27.7873C29.496 27.5706 29.4527 27.4417 29.7012 27.2039C30.4773 26.4609 31.2355 25.6989 31.982 24.9274C32.1998 24.7022 32.3225 24.6885 32.5731 24.9052C33.42 25.6386 34.6286 25.571 35.3847 24.7868C36.1301 24.0132 36.1481 22.802 35.428 22.0093C34.6656 21.1723 33.4549 21.074 32.5847 21.8276C32.3077 22.0675 32.1787 22.0136 31.9608 21.7884C31.2873 21.092 30.5947 20.4156 29.9084 19.7307C29.3205 19.1431 29.3258 19.1473 29.8619 18.5354C31.1836 17.0272 31.9259 15.2644 32.0264 13.269C32.333 7.21417 26.732 2.71083 20.8984 4.35744C17.8869 5.20717 15.9212 7.22368 14.9124 10.1819C14.7919 10.5359 14.8501 10.6437 15.2424 10.7103C15.8461 10.8107 16.4351 11.0073 17.022 11.1901C17.2789 11.2704 17.3889 11.281 17.4967 10.9671C18.5256 7.97829 21.1098 6.3338 24.227 6.78825C26.6072 7.13491 28.2515 8.53103 29.0297 10.8001C29.8143 13.0893 29.3047 15.164 27.6974 16.9765C27.4606 17.2428 27.3242 17.1604 27.119 16.9511C26.381 16.1955 25.6344 15.4462 24.8742 14.7116C24.6405 14.4855 24.6098 14.3555 24.8477 14.0817C25.5879 13.2288 25.4991 12.0399 24.6902 11.2821C23.8982 10.5401 22.6431 10.5465 21.8691 11.2958C21.0866 12.0536 21.0242 13.2605 21.7686 14.106C21.9917 14.3597 21.9621 14.4876 21.7496 14.6958C20.9935 15.4345 20.2385 16.1754 19.5111 16.9406C19.2594 17.2058 19.1293 17.209 18.8608 16.948C17.3096 15.4409 15.4359 14.6218 13.2798 14.5055C7.56355 14.1969 3.08548 19.3312 4.2317 24.9358C4.92958 28.3506 7.05494 30.5489 10.3519 31.6427C10.6966 31.7569 10.8415 31.7167 10.9144 31.3151C11.0191 30.7296 11.1968 30.1547 11.3871 29.5903C11.4897 29.287 11.4865 29.1623 11.1323 29.0576C7.9992 28.1329 6.17836 25.1049 6.89528 21.9015C7.39966 19.6472 8.80916 18.1179 11.0286 17.4415C13.2407 16.7672 15.2307 17.2619 16.968 18.7912C17.2377 19.029 17.2641 19.1822 16.9839 19.4475C16.2162 20.1735 15.4739 20.9271 14.738 21.6849C14.5254 21.9036 14.3996 21.9449 14.1522 21.7081C13.559 21.1416 12.8304 21.0603 12.0871 21.3319C11.311 21.6162 10.8584 22.2049 10.7833 23.0334C10.703 23.9286 11.0773 24.6198 11.8682 25.0394C12.6422 25.4495 13.4258 25.3776 14.0866 24.8111C14.4186 24.5268 14.5699 24.5976 14.8257 24.8639C15.5458 25.6133 16.2775 26.352 17.0325 27.0665C17.3328 27.3508 17.3868 27.5104 17.0664 27.8486C15.8102 29.1718 15.0129 30.7412 14.7834 32.5643C14.3425 36.07 15.5289 38.9447 18.4008 40.9739C21.2759 43.0052 24.4005 43.1584 27.5377 41.5562C29.6367 40.4835 31.0229 38.7523 31.7747 36.5128C31.8995 36.1418 31.9111 35.9601 31.4342 35.8861C30.8474 35.7952 30.2701 35.6134 29.7075 35.4147C29.3882 35.3016 29.3047 35.383 29.2042 35.6758C28.2039 38.6118 25.5826 40.2774 22.4993 39.8229C20.1212 39.4731 18.4716 38.0823 17.6934 35.8132C16.9099 33.5271 17.3984 31.4483 19.0236 29.6421C19.2351 29.4074 19.3609 29.3842 19.5946 29.6294C20.3369 30.4062 21.0993 31.164 21.8743 31.908C22.1049 32.1289 22.1059 32.2568 21.8955 32.5009C21.1342 33.3845 21.2082 34.5935 22.0361 35.345C22.8175 36.0552 24.0568 36.0499 24.8287 35.3333C25.644 34.5766 25.7063 33.3623 24.9387 32.4861C24.7325 32.2515 24.7579 32.1278 24.9566 31.9323C25.7233 31.1798 26.4909 30.4263 27.2332 29.6505C27.4754 29.3979 27.6012 29.418 27.8444 29.6548C29.3977 31.1608 31.2735 31.9799 33.4264 32.1056C38.448 32.4005 42.6585 28.3971 42.6596 23.3579L42.6585 23.3526Z" fill="#F38121"/>
<path d="M115.34 19.6251C116.811 17.8062 118.58 16.6923 120.968 16.743C123.327 16.7937 125.115 17.7946 126.261 19.8756C126.626 19.4888 126.952 19.1189 127.303 18.7743C129.336 16.779 132.636 16.1406 135.251 17.2609C137.415 18.1878 138.384 19.9749 138.717 22.1954C138.815 22.8401 138.831 23.4912 138.83 24.1432C138.826 27.6817 138.817 31.2201 138.841 34.7574C138.844 35.2436 138.7 35.3345 138.254 35.3207C137.216 35.288 136.176 35.2922 135.137 35.3197C134.731 35.3302 134.602 35.2288 134.605 34.8018C134.624 31.5456 134.615 28.2883 134.617 25.0321C134.617 24.4138 134.567 23.805 134.405 23.2047C134 21.6976 132.981 20.757 131.568 20.6038C129.749 20.4061 128.344 21.0868 127.62 22.5146C127.204 23.3347 127.075 24.213 127.076 25.1219C127.079 28.3433 127.07 31.5646 127.085 34.786C127.087 35.1833 127.009 35.3366 126.571 35.3228C125.498 35.289 124.422 35.2922 123.348 35.3218C122.952 35.3324 122.852 35.2235 122.854 34.8282C122.871 31.4843 122.861 28.1393 122.867 24.7943C122.867 24.3504 122.821 23.9139 122.729 23.4848C122.334 21.6585 121.153 20.6408 119.36 20.5647C117.571 20.4886 116.123 21.518 115.587 23.2608C115.41 23.8346 115.336 24.4244 115.337 25.0289C115.345 28.2851 115.333 31.5424 115.351 34.7986C115.353 35.2193 115.235 35.3313 114.822 35.3207C113.748 35.2922 112.673 35.2975 111.598 35.3186C111.247 35.326 111.117 35.2563 111.118 34.8673C111.131 29.0936 111.129 23.3199 111.123 17.5462C111.123 17.2556 111.149 17.1055 111.51 17.114C112.654 17.1393 113.8 17.1372 114.944 17.114C115.288 17.1076 115.355 17.2313 115.346 17.541C115.326 18.2353 115.34 18.9307 115.34 19.6251Z" fill="#57585C"/>
<path d="M63.5707 35.7055C57.2231 35.7414 52.2904 31.5414 51.3556 25.141C50.3807 18.471 54.3967 12.3517 60.9557 11.0729C65.345 10.2179 69.3483 11.0845 72.7404 14.1727C73.0597 14.4634 73.0968 14.6325 72.7954 14.9569C72.0785 15.7316 71.3869 16.5306 70.7166 17.3465C70.4691 17.6477 70.3327 17.6784 70.0271 17.4015C68.6938 16.1903 67.2007 15.255 65.4021 14.8903C60.7707 13.9497 56.5538 16.8656 55.8379 21.5434C55.3674 24.6199 56.0177 27.4005 58.2858 29.6464C60.9018 32.2379 65.0447 32.5549 68.3173 30.4676C69.0015 30.0311 69.6391 29.5301 70.2259 28.97C70.4596 28.747 70.6066 28.7037 70.8561 28.9679C71.5804 29.7362 72.328 30.4834 73.0841 31.2211C73.2702 31.4029 73.2606 31.516 73.0925 31.6872C71.0116 33.8094 68.5764 35.2531 65.5734 35.6082C65.2593 35.6452 64.9442 35.6864 64.6281 35.7002C64.277 35.716 63.9238 35.7033 63.5717 35.7033L63.5707 35.7055Z" fill="#57585C"/>
<path d="M78.668 19.847C79.1628 19.252 79.553 18.7373 80.0458 18.3177C82.1162 16.5549 84.4741 16.3319 86.9336 17.2006C89.3107 18.0408 90.3818 19.9517 90.7339 22.3444C90.8111 22.8697 90.827 23.395 90.827 23.9234C90.8249 27.5495 90.8185 31.1757 90.8365 34.8018C90.8386 35.2171 90.7308 35.3334 90.3152 35.3218C89.2589 35.2922 88.2004 35.289 87.1451 35.3218C86.6915 35.3366 86.6016 35.1844 86.6037 34.7585C86.6217 31.4494 86.6101 28.1393 86.6164 24.8302C86.6175 24.0449 86.4927 23.2872 86.1639 22.5738C85.5326 21.203 84.2563 20.4938 82.5814 20.5636C80.8769 20.6344 79.5668 21.5475 79.0074 23.0642C78.7748 23.6962 78.6659 24.3525 78.6669 25.0278C78.6701 28.284 78.6606 31.5413 78.6775 34.7976C78.6796 35.2076 78.5802 35.3323 78.1594 35.3207C77.0861 35.289 76.0097 35.2985 74.9354 35.3175C74.5917 35.3239 74.4447 35.2626 74.4458 34.8663C74.4574 26.7865 74.4574 18.7067 74.4458 10.6269C74.4458 10.2517 74.5547 10.1502 74.9206 10.1587C75.9949 10.1819 77.0703 10.1936 78.1435 10.1544C78.6141 10.1375 78.6775 10.3098 78.6754 10.723C78.6585 13.7151 78.6659 16.7081 78.6659 19.847H78.668Z" fill="#57585C"/>
<path d="M149.85 35.7339C144.993 35.7392 141.172 32.6595 140.255 28.0621C139.155 22.5452 143.222 17.1974 148.845 16.7948C152.804 16.5115 156.041 17.8591 158.158 21.2949C161.747 27.1204 158.083 34.7035 151.3 35.6272C150.792 35.697 150.284 35.7223 149.85 35.7339ZM144.31 26.3014C144.291 26.6586 144.343 27.1109 144.432 27.5622C145.236 31.646 150.019 33.5018 153.22 30.9463C154.814 29.6738 155.382 27.9279 155.322 25.9388C155.215 22.3867 152.084 19.8544 148.624 20.5234C146.045 21.0223 144.312 23.303 144.31 26.3014Z" fill="#57585C"/>
<path d="M102.948 27.7049C100.887 27.7049 98.8264 27.7176 96.7666 27.6944C96.3225 27.6891 96.277 27.836 96.3637 28.2112C97.2815 32.1639 101.209 33.0738 104.195 31.7274C104.924 31.3987 105.564 30.9326 106.137 30.3809C106.342 30.1833 106.477 30.1548 106.697 30.3598C107.302 30.9231 107.909 31.4875 108.554 32.0032C108.901 32.2801 108.8 32.4471 108.563 32.7039C106.733 34.6877 104.457 35.6526 101.774 35.735C96.9432 35.883 93.2275 32.9787 92.2526 28.2746C91.3897 24.1084 93.2444 19.7699 96.7222 17.8242C101.821 14.9707 107.881 17.6192 109.32 23.3379C109.648 24.6411 109.775 25.9653 109.673 27.3118C109.649 27.6383 109.547 27.7134 109.235 27.7123C107.14 27.6986 105.044 27.7049 102.948 27.7049ZM100.89 24.9401C102.316 24.9401 103.741 24.9317 105.167 24.9465C105.476 24.9497 105.567 24.8651 105.506 24.5586C105.372 23.8843 105.198 23.2238 104.884 22.6087C103.939 20.7602 102.069 19.8608 100.039 20.2751C98.1285 20.664 96.7031 22.3011 96.3056 24.5142C96.241 24.8746 96.3129 24.9518 96.6661 24.9475C98.0735 24.9296 99.482 24.9401 100.889 24.9401H100.89Z" fill="#57585C"/>
<path d="M165.173 19.7974C165.626 19.3017 165.976 18.861 166.384 18.4816C168.395 16.6099 170.763 16.3361 173.269 17.1373C175.628 17.8919 176.768 19.7202 177.2 22.0602C177.303 22.615 177.332 23.1773 177.332 23.7417C177.332 27.4206 177.323 31.1007 177.342 34.7796C177.344 35.2299 177.215 35.3345 176.785 35.3218C175.729 35.2901 174.67 35.2901 173.614 35.3218C173.201 35.3345 173.121 35.195 173.123 34.8135C173.137 31.5213 173.135 28.2291 173.129 24.937C173.127 23.7512 172.89 22.6404 172.102 21.6913C170.729 20.0394 166.644 19.9073 165.494 23.116C165.273 23.7332 165.173 24.3737 165.173 25.03C165.173 28.2873 165.165 31.5435 165.183 34.8008C165.185 35.2203 165.071 35.3324 164.659 35.3208C163.567 35.2922 162.474 35.2986 161.382 35.3186C161.052 35.325 160.966 35.2182 160.967 34.898C160.976 29.1063 160.976 23.3147 160.967 17.522C160.967 17.188 161.073 17.1098 161.39 17.1151C162.517 17.133 163.646 17.1351 164.773 17.1151C165.105 17.1087 165.193 17.2102 165.182 17.5304C165.159 18.248 165.175 18.9678 165.175 19.7974H165.173Z" fill="#57585C"/>
<path d="M210.94 16.8C213.178 16.855 215.27 17.5018 217.22 18.6432C217.512 18.8144 217.558 18.9656 217.382 19.2615C216.943 20.0024 216.516 20.7517 216.125 21.5179C215.951 21.8593 215.797 21.8117 215.522 21.6564C214.103 20.8532 212.621 20.2264 210.959 20.1567C210.336 20.1303 209.728 20.1937 209.166 20.4928C208.005 21.1121 207.91 22.4987 209.002 23.2248C210.087 23.9456 211.357 24.2246 212.572 24.6272C213.474 24.9263 214.368 25.2434 215.21 25.6894C216.964 26.6173 218.052 27.9849 217.998 30.0511C217.938 32.3065 216.938 34.0007 214.851 34.9518C213.024 35.7836 211.096 35.8238 209.156 35.4824C207.205 35.1389 205.426 34.3653 203.815 33.2069C203.539 33.0093 203.495 32.8709 203.7 32.5844C204.157 31.9398 204.602 31.2813 205.003 30.6007C205.251 30.1811 205.417 30.1135 205.857 30.4221C207.545 31.609 209.403 32.3551 211.508 32.3329C212.131 32.3266 212.737 32.2093 213.279 31.8816C214.387 31.2095 214.43 29.7689 213.354 29.0471C212.358 28.3791 211.189 28.1371 210.067 27.7905C209.143 27.5051 208.215 27.2346 207.342 26.8097C205.544 25.9346 204.4 24.6051 204.384 22.5082C204.367 20.2951 205.34 18.6644 207.295 17.6265C208.425 17.0262 209.648 16.8212 210.942 16.8H210.94Z" fill="#57585C"/>
<path d="M195.529 35.7318C190.363 35.7562 186.327 32.3319 185.775 27.7472C185.147 22.5262 188.098 18.043 193.008 16.9893C196.322 16.278 199.374 16.9153 201.905 19.3387C202.452 19.8618 202.457 19.8608 201.935 20.4252C201.326 21.0836 200.699 21.7262 200.107 22.4005C199.886 22.652 199.762 22.6467 199.534 22.4131C198.332 21.184 196.912 20.4178 195.147 20.4135C192.695 20.4072 190.593 22.1278 190.051 24.715C189.542 27.1374 190.039 29.3272 192.027 30.9548C194.094 32.6479 196.97 32.4598 199.194 30.5859C199.472 30.3513 199.775 29.9021 200.02 29.9317C200.333 29.9698 200.606 30.3862 200.882 30.6546C201.349 31.108 201.793 31.5857 202.271 32.0286C202.496 32.2378 202.532 32.3615 202.302 32.6109C200.382 34.6898 198.03 35.7688 195.529 35.7308V35.7318Z" fill="#57585C"/>
<path d="M183.747 26.2369C183.747 29.0883 183.738 31.9387 183.756 34.7901C183.758 35.196 183.666 35.3344 183.237 35.3217C182.146 35.29 181.053 35.3038 179.961 35.3165C179.672 35.3196 179.524 35.2911 179.525 34.9296C179.537 29.1221 179.536 23.3146 179.529 17.5071C179.529 17.2207 179.591 17.1108 179.902 17.1161C181.029 17.134 182.157 17.1456 183.283 17.1118C183.72 17.0981 183.755 17.2756 183.754 17.6329C183.741 20.5012 183.748 23.3696 183.748 26.239L183.747 26.2369Z" fill="#57585C"/>
<path d="M181.595 14.3597C180.997 14.3597 180.397 14.3459 179.799 14.365C179.497 14.3745 179.351 14.3163 179.359 13.9665C179.379 12.8938 179.375 11.819 179.361 10.7462C179.357 10.4524 179.441 10.351 179.747 10.3541C180.998 10.37 182.249 10.371 183.498 10.3541C183.809 10.3499 183.88 10.4566 183.876 10.7462C183.861 11.82 183.856 12.8938 183.878 13.9665C183.885 14.3174 183.746 14.3734 183.444 14.3639C182.828 14.3449 182.212 14.3586 181.595 14.3586V14.3597Z" fill="#F38121"/>
<path d="M111.127 43.1109C111.127 42.1439 111.124 41.1768 111.13 40.2098C111.13 40.0544 111.05 39.8272 111.348 39.8388C112.33 39.8758 113.321 39.7321 114.296 39.936C115.986 40.2901 117.062 41.7327 116.924 43.4332C116.785 45.138 115.441 46.4305 113.721 46.4876C112.983 46.5119 112.243 46.4791 111.503 46.4992C111.204 46.5077 111.114 46.4189 111.12 46.1177C111.138 45.1158 111.126 44.1128 111.126 43.1109H111.127ZM111.974 43.1637C111.974 43.8856 111.977 44.6064 111.972 45.3282C111.971 45.5364 111.968 45.7119 112.264 45.6971C112.826 45.6696 113.394 45.7097 113.95 45.641C115.228 45.4836 116.09 44.3992 116.035 43.0824C115.979 41.7338 115.022 40.7319 113.717 40.6716C113.26 40.6505 112.8 40.6854 112.344 40.6589C112.031 40.641 111.96 40.7625 111.968 41.0521C111.986 41.756 111.974 42.4599 111.974 43.1637Z" fill="#57585C"/>
<path d="M146.845 42.1449C148.009 41.1536 148.941 41.2117 149.898 42.2812C150.385 41.6852 151.004 41.3618 151.786 41.4516C152.742 41.5605 153.341 42.1956 153.39 43.2367C153.437 44.2196 153.39 45.2056 153.409 46.1906C153.417 46.5848 153.153 46.4717 152.946 46.4929C152.701 46.5183 152.561 46.4739 152.568 46.1653C152.584 45.269 152.598 44.3707 152.555 43.4755C152.51 42.537 151.866 42.0508 151.044 42.2728C150.506 42.4176 150.154 42.8847 150.137 43.5516C150.115 44.3601 150.125 45.1697 150.129 45.9782C150.131 46.2678 150.176 46.5013 149.724 46.5119C149.234 46.5235 149.295 46.2572 149.296 45.957C149.3 45.1655 149.304 44.3739 149.296 43.5833C149.286 42.7357 148.854 42.2305 148.149 42.2263C147.454 42.221 146.898 42.7822 146.872 43.5696C146.847 44.3781 146.859 45.1876 146.87 45.9962C146.875 46.3005 146.893 46.5161 146.454 46.5109C146.049 46.5056 146.01 46.3534 146.014 46.0173C146.031 44.6983 146.018 43.3793 146.023 42.0604C146.023 41.8236 145.907 41.5372 146.368 41.5288C146.797 41.5203 146.941 41.6619 146.847 42.146L146.845 42.1449Z" fill="#57585C"/>
<path d="M170.22 41.6038C170.779 41.5136 171.139 41.7087 171.298 42.1893C171.611 43.1394 171.923 44.0906 172.238 45.0397C172.247 45.0661 172.28 45.084 172.344 45.1496C172.7 44.0779 173.05 43.0337 173.394 41.9874C173.475 41.7401 173.506 41.5139 173.884 41.5097C174.267 41.5055 174.297 41.7369 174.378 41.9842C174.732 43.0506 175.088 44.1149 175.474 45.269C175.847 44.1212 176.234 43.0675 176.524 41.9874C176.669 41.4484 177.006 41.5372 177.363 41.5488C177.57 41.5562 177.513 41.6904 177.471 41.8099C176.956 43.3032 176.437 44.7955 175.932 46.2921C175.84 46.5637 175.649 46.5446 175.433 46.5573C175.195 46.5711 175.09 46.4675 175.019 46.254C174.701 45.287 174.372 44.3231 174.045 43.3592C174.006 43.2451 173.959 43.1341 173.874 42.9132C173.487 44.0473 173.125 45.0788 172.786 46.1187C172.696 46.3946 172.613 46.5721 172.259 46.5668C171.923 46.5626 171.86 46.3808 171.776 46.1335C171.264 44.6243 170.741 43.1193 170.22 41.6048V41.6038Z" fill="#57585C"/>
<path d="M141.108 45.826C141.108 46.4855 141.085 47.0636 141.116 47.6385C141.137 48.037 140.9 47.9852 140.648 47.9979C140.374 48.0106 140.238 47.9598 140.241 47.6322C140.256 45.788 140.245 43.9427 140.252 42.0984C140.252 41.8469 140.126 41.5309 140.619 41.5277C141.023 41.5256 141.164 41.6482 141.117 42.0318C141.111 42.072 141.15 42.1174 141.171 42.1639C142.633 41.2128 143.78 41.254 144.626 42.2781C145.455 43.2811 145.394 44.9974 144.497 45.9148C143.602 46.8311 142.397 46.8237 141.107 45.826H141.108ZM144.343 44.061C144.352 42.982 143.692 42.2231 142.743 42.221C141.818 42.2189 141.063 43.0306 141.066 44.024C141.069 45.027 141.816 45.8419 142.733 45.8408C143.67 45.8408 144.332 45.1073 144.342 44.0621L144.343 44.061Z" fill="#57585C"/>
<path d="M199.323 42.128C200.4 41.2994 201.434 41.235 202.153 41.8765C202.573 42.2517 202.769 42.7325 202.781 43.2789C202.801 44.2449 202.777 45.212 202.802 46.179C202.813 46.5637 202.576 46.4823 202.358 46.495C202.106 46.5098 201.93 46.5024 201.94 46.1515C201.966 45.3081 201.954 44.4648 201.947 43.6203C201.938 42.7463 201.478 42.2337 200.709 42.2252C199.938 42.2168 199.354 42.7685 199.33 43.5854C199.304 44.4288 199.304 45.2733 199.332 46.1156C199.344 46.4823 199.176 46.495 198.893 46.5024C198.583 46.5109 198.466 46.439 198.468 46.0976C198.484 44.0589 198.483 42.0202 198.469 39.9815C198.467 39.6613 198.556 39.5566 198.882 39.5566C199.219 39.5566 199.347 39.6401 199.331 40.0005C199.301 40.678 199.322 41.3576 199.322 42.1301L199.323 42.128Z" fill="#57585C"/>
<path d="M187.799 44.1646C188.493 43.4322 189.083 42.8128 189.668 42.1893C190.085 41.7454 190.634 41.5358 191.316 41.5604C190.969 41.9325 190.67 42.2537 190.37 42.574C190.024 42.946 189.426 43.3001 189.4 43.6932C189.373 44.0843 189.916 44.5176 190.216 44.9266C190.579 45.4201 190.951 45.9074 191.352 46.4421C190.776 46.5415 190.32 46.5679 189.982 45.9982C189.688 45.5026 189.28 45.0756 188.946 44.6021C188.777 44.3622 188.682 44.3263 188.432 44.5408C187.955 44.9498 187.687 45.4075 187.798 46.0479C187.854 46.3692 187.751 46.5087 187.382 46.5055C187.029 46.5024 186.943 46.3946 186.946 46.0553C186.96 44.0335 186.962 42.0107 186.943 39.9878C186.94 39.6168 187.079 39.5598 187.402 39.5534C187.746 39.5471 187.808 39.6813 187.805 39.9889C187.79 41.3226 187.799 42.6564 187.799 44.1635V44.1646Z" fill="#57585C"/>
<path d="M128.077 44.3791C128.153 45.0365 128.459 45.5005 129.044 45.7372C129.704 46.0035 130.319 45.864 130.873 45.4296C131.026 45.3102 131.13 45.0967 131.388 45.3356C131.633 45.5628 131.688 45.6928 131.414 45.9475C130.665 46.644 129.441 46.8279 128.517 46.3438C127.553 45.8387 127.023 44.6624 127.24 43.5125C127.519 42.036 128.745 41.1895 130.116 41.5108C131.408 41.8141 131.877 43.0739 131.85 44.1403C131.841 44.4637 131.599 44.3738 131.427 44.3749C130.32 44.3812 129.212 44.3781 128.077 44.3781V44.3791ZM129.518 43.6974C129.904 43.6974 130.291 43.6879 130.677 43.7006C130.951 43.7101 130.999 43.6192 130.931 43.3582C130.752 42.6712 130.261 42.2094 129.624 42.1755C128.97 42.1417 128.375 42.6036 128.143 43.2979C128.049 43.5791 128.057 43.7239 128.413 43.7017C128.781 43.6795 129.15 43.6964 129.519 43.6964L129.518 43.6974Z" fill="#57585C"/>
<path d="M120.258 44.3792C119.783 44.3792 119.305 44.4056 118.832 44.3718C118.369 44.338 118.392 44.5282 118.531 44.8558C118.982 45.9243 120.242 46.2023 121.221 45.4329C121.404 45.2892 121.517 45.1253 121.779 45.3642C122.035 45.5978 122.011 45.7172 121.779 45.936C121 46.6758 119.734 46.8385 118.793 46.2964C117.812 45.7309 117.337 44.5102 117.637 43.3191C117.958 42.0488 119.064 41.2646 120.252 41.4633C121.661 41.699 122.175 42.8552 122.215 44.0801C122.224 44.3633 122.059 44.3845 121.843 44.3813C121.315 44.375 120.786 44.3792 120.259 44.3792H120.258ZM119.846 43.6975C120.216 43.6975 120.586 43.6817 120.954 43.7017C121.288 43.7197 121.344 43.5812 121.267 43.2917C121.099 42.6533 120.579 42.202 119.956 42.1767C119.307 42.1502 118.762 42.5762 118.507 43.2684C118.392 43.5781 118.405 43.7271 118.79 43.7017C119.14 43.6785 119.494 43.6964 119.845 43.6964L119.846 43.6975Z" fill="#57585C"/>
<path d="M212.674 44.3792C212.876 45.8092 214.302 46.326 215.463 45.4223C215.622 45.2987 215.724 45.1106 215.979 45.341C216.242 45.5777 216.251 45.7109 215.992 45.9529C215.224 46.6652 213.981 46.8311 213.046 46.3133C212.094 45.7859 211.593 44.6033 211.842 43.4523C212.051 42.4853 212.572 41.7825 213.566 41.5235C214.464 41.29 215.241 41.5225 215.847 42.2316C216.277 42.7358 216.397 43.354 216.438 43.9977C216.458 44.301 216.344 44.3887 216.048 44.3855C214.925 44.3707 213.802 44.3792 212.675 44.3792H212.674ZM214.085 43.6975C214.472 43.6975 214.859 43.6912 215.245 43.6996C215.487 43.7049 215.596 43.6648 215.523 43.372C215.344 42.6523 214.794 42.164 214.117 42.1756C213.443 42.1872 212.82 42.7537 212.682 43.4365C212.631 43.6901 212.743 43.6996 212.925 43.6975C213.312 43.6943 213.699 43.6975 214.085 43.6975Z" fill="#57585C"/>
<path d="M206.23 44.3791C205.72 44.3791 205.209 44.3939 204.699 44.3738C204.374 44.3612 204.364 44.4806 204.45 44.7448C204.825 45.8979 206.181 46.2413 207.203 45.399C207.471 45.1792 207.599 45.2352 207.804 45.4307C207.966 45.585 207.981 45.6791 207.824 45.8556C207.082 46.6863 205.593 46.8649 204.626 46.2213C203.571 45.5195 203.198 44.0008 203.779 42.7822C204.293 41.7063 205.49 41.1874 206.611 41.5552C207.577 41.8722 208.305 43.0834 208.176 44.1234C208.144 44.3834 207.999 44.3812 207.814 44.3812C207.287 44.3791 206.758 44.3812 206.23 44.3812V44.3791ZM205.823 43.6974C206.209 43.6974 206.596 43.6848 206.981 43.7017C207.257 43.7133 207.305 43.6161 207.246 43.3603C207.085 42.6564 206.513 42.1629 205.835 42.1745C205.182 42.1861 204.509 42.7928 204.403 43.4385C204.363 43.6848 204.487 43.6985 204.665 43.6974C205.051 43.6943 205.437 43.6974 205.824 43.6974H205.823Z" fill="#57585C"/>
<path d="M155.035 44.3792C155.252 45.7943 156.647 46.3175 157.795 45.4551C157.944 45.343 158.05 45.0968 158.315 45.3187C158.577 45.5375 158.669 45.6886 158.355 45.9624C157.546 46.6683 156.35 46.8248 155.404 46.3048C154.488 45.8007 153.995 44.6878 154.181 43.5442C154.365 42.4165 155.119 41.607 156.196 41.4675C157.823 41.2572 158.86 42.5391 158.793 44.1667C158.782 44.4595 158.561 44.3749 158.406 44.376C157.456 44.3823 156.505 44.3792 155.556 44.3792C155.384 44.3792 155.213 44.3792 155.035 44.3792ZM156.46 43.6975C156.847 43.6975 157.234 43.6869 157.62 43.7017C157.896 43.7123 157.939 43.6182 157.877 43.3593C157.707 42.6586 157.184 42.1851 156.52 42.1745C155.843 42.164 155.233 42.686 155.054 43.3942C154.991 43.6467 155.069 43.7059 155.3 43.7006C155.687 43.6922 156.073 43.6985 156.46 43.6985V43.6975Z" fill="#57585C"/>
<path d="M136.875 46.6071C135.447 46.5997 134.366 45.4889 134.371 44.0315C134.375 42.5677 135.497 41.4316 136.933 41.4379C138.374 41.4442 139.471 42.5793 139.463 44.0547C139.455 45.5153 138.34 46.6145 136.875 46.6081V46.6071ZM138.616 44.0653C138.627 43.0348 137.895 42.2327 136.932 42.22C135.97 42.2073 135.24 42.9513 135.22 43.9649C135.199 45.0091 135.962 45.8525 136.926 45.8514C137.865 45.8514 138.605 45.0672 138.616 44.0642V44.0653Z" fill="#57585C"/>
<path d="M180.218 46.607C178.792 46.6039 177.698 45.4931 177.694 44.0441C177.691 42.5856 178.812 41.441 180.248 41.4379C181.685 41.4347 182.802 42.5751 182.796 44.0388C182.79 45.5026 181.68 46.6092 180.218 46.606V46.607ZM178.567 43.9818C178.56 45.0365 179.261 45.8292 180.223 45.8545C181.167 45.8789 181.943 45.0672 181.949 44.0473C181.956 43.0274 181.21 42.2274 180.246 42.221C179.27 42.2147 178.573 42.945 178.567 43.9828V43.9818Z" fill="#57585C"/>
<path d="M160.386 42.1851C161.045 41.5024 161.736 41.3058 162.535 41.5235C163.311 41.7349 163.805 42.3595 163.832 43.2462C163.861 44.2122 163.825 45.1803 163.846 46.1473C163.854 46.4929 163.677 46.4929 163.423 46.4993C163.154 46.5056 163.006 46.4707 163.015 46.1389C163.038 45.2955 163.043 44.45 163.016 43.6066C162.984 42.5719 162.255 42.015 161.335 42.2855C160.762 42.4536 160.4 42.9535 160.386 43.6573C160.369 44.431 160.377 45.2046 160.383 45.9782C160.386 46.2678 160.43 46.5014 159.978 46.512C159.488 46.5236 159.55 46.2572 159.55 45.9571C159.553 44.691 159.542 43.4248 159.561 42.1587C159.564 41.9209 159.355 41.5531 159.907 41.5277C160.387 41.5055 160.414 41.7518 160.387 42.1862L160.386 42.1851Z" fill="#57585C"/>
<path d="M193.541 46.6029C192.819 46.5807 192.23 46.3756 191.682 46.0311C191.468 45.8969 191.434 45.7648 191.608 45.5735C191.747 45.4213 191.794 45.1497 192.117 45.3853C192.563 45.7119 193.079 45.9 193.65 45.8546C194.029 45.825 194.346 45.677 194.437 45.2754C194.534 44.8484 194.218 44.6741 193.898 44.5515C193.504 44.4014 193.092 44.302 192.698 44.1541C191.941 43.8687 191.63 43.4143 191.699 42.7336C191.764 42.0921 192.269 41.6144 193.015 41.4982C193.705 41.3914 194.336 41.5753 194.945 41.886C195.167 41.9991 195.163 42.1386 195.024 42.2993C194.908 42.4324 194.902 42.7611 194.582 42.5667C194.262 42.3732 193.914 42.2591 193.545 42.1989C193.29 42.1576 193.05 42.2063 192.833 42.3267C192.398 42.5667 192.384 43.0391 192.817 43.2822C193.074 43.427 193.367 43.5115 193.646 43.6161C193.843 43.6901 194.048 43.743 194.242 43.8222C194.986 44.1266 195.324 44.5811 195.267 45.1845C195.199 45.8979 194.761 46.3682 193.995 46.5394C193.825 46.5775 193.648 46.5881 193.544 46.6029H193.541Z" fill="#57585C"/>
<path d="M167.408 45.657C167.526 46.3904 167.429 46.5194 166.735 46.5796C165.694 46.6694 165.141 46.1695 165.134 45.1222C165.129 44.3126 165.125 43.5041 165.137 42.6945C165.142 42.4113 165.067 42.2485 164.756 42.2887C164.444 42.3289 164.431 42.1439 164.425 41.904C164.417 41.6334 164.501 41.5045 164.783 41.5415C165.059 41.5774 165.161 41.4538 165.136 41.1811C165.117 40.9718 165.147 40.7583 165.13 40.548C165.105 40.2363 165.162 40.0756 165.547 40.0767C165.939 40.0767 165.961 40.2542 165.961 40.5586C165.961 41.5351 165.97 41.5404 166.954 41.5383C167.253 41.5383 167.518 41.5087 167.476 41.9558C167.454 42.1978 167.4 42.2876 167.145 42.295C166.767 42.3056 166.273 42.1143 166.039 42.3891C165.796 42.6745 165.973 43.1659 165.96 43.5675C165.946 43.9892 165.955 44.412 165.958 44.8336C165.963 45.6823 166.292 45.9391 167.117 45.7426C167.215 45.7193 167.31 45.6865 167.41 45.657H167.408Z" fill="#57585C"/>
<path d="M122.229 41.5753C122.823 41.5274 123.22 41.7525 123.419 42.2506C123.83 43.2726 124.245 44.2946 124.703 45.4297C125.168 44.2872 125.593 43.2473 126.014 42.2041C126.31 41.4696 126.307 41.4675 127.159 41.6017C126.627 42.8509 126.101 44.0906 125.573 45.3293C125.456 45.603 125.322 45.8715 125.219 46.1505C125.127 46.3978 125.031 46.5648 124.708 46.5637C124.4 46.5627 124.281 46.4285 124.175 46.1748C123.541 44.6561 122.895 43.1426 122.23 41.5742L122.229 41.5753Z" fill="#57585C"/>
<path d="M184.451 42.4927C184.929 41.8871 185.406 41.5235 186.06 41.4696C186.261 41.4538 186.444 41.496 186.381 41.7423C186.327 41.9547 186.605 42.2845 186.158 42.3743C184.952 42.6142 184.451 43.2272 184.422 44.4902C184.409 45.0514 184.401 45.6147 184.426 46.1748C184.439 46.495 184.276 46.5067 184.04 46.494C183.818 46.4824 183.586 46.5532 183.59 46.1759C183.606 44.7544 183.605 43.3318 183.59 41.9103C183.587 41.5933 183.715 41.5383 183.995 41.5341C184.295 41.5299 184.471 41.5785 184.423 41.9304C184.404 42.0636 184.433 42.2041 184.449 42.4927H184.451Z" fill="#57585C"/>
<path d="M132.674 43.0052C132.674 41.9854 132.684 40.9644 132.667 39.9445C132.662 39.6391 132.762 39.5524 133.059 39.5577C133.346 39.563 133.507 39.5915 133.504 39.9509C133.488 42.0086 133.486 44.0674 133.504 46.1251C133.507 46.5067 133.315 46.4866 133.049 46.5003C132.749 46.5162 132.661 46.4179 132.666 46.1188C132.683 45.0809 132.673 44.0431 132.673 43.0052H132.674Z" fill="#57585C"/>
<path d="M209.757 42.5317C210.217 41.9071 210.681 41.5562 211.315 41.479C211.521 41.4537 211.751 41.4495 211.683 41.7433C211.633 41.961 211.931 42.315 211.412 42.3816C210.413 42.5084 209.824 43.1679 209.771 44.192C209.739 44.823 209.741 45.4582 209.764 46.0902C209.777 46.4242 209.664 46.514 209.344 46.5003C209.07 46.4886 208.894 46.4939 208.9 46.1198C208.923 44.731 208.918 43.3413 208.902 41.9525C208.899 41.6323 208.986 41.5298 209.316 41.5298C209.657 41.5298 209.809 41.6196 209.759 41.9747C209.74 42.1089 209.755 42.2495 209.755 42.5306L209.757 42.5317Z" fill="#57585C"/>
<path d="M217.958 45.9338C218.044 46.346 217.941 46.5045 217.489 46.513C217.009 46.5225 217.004 46.3058 217.001 45.9497C216.997 45.584 217.031 45.3864 217.495 45.3938C217.951 45.4012 218.055 45.5629 217.958 45.9328V45.9338Z" fill="#57585C"/>
</g>
<defs>
<clipPath id="clip0_31_352">
<rect width="218" height="48" fill="white"/>
</clipPath>
</defs>
</svg>
